<svg width="408" height="745" viewBox="0 0 408 745" fill="none" xmlns="http://www.w3.org/2000/svg">
<path d="M376.593 318.953C361.521 336.641 353.984 357.039 353.984 380.147C353.984 403.256 361.521 423.654 376.593 441.342C391.666 459.03 413.115 467.874 440.941 467.874C468.767 467.874 490.217 459.03 505.289 441.342C520.362 423.654 527.898 403.256 527.898 380.147C527.898 357.039 520.362 336.641 505.289 318.953C490.217 301.265 468.767 292.421 440.941 292.421C413.115 292.421 391.666 301.265 376.593 318.953Z" fill="#88E5DA"/>
<path d="M274.794 723.886C260.895 709.873 253.945 692.768 253.945 672.568C253.945 652.369 260.895 635.263 274.794 621.251C288.693 607.239 306.112 600.232 327.051 600.232C347.989 600.232 365.408 607.239 379.307 621.251C393.206 635.263 400.156 652.369 400.156 672.568C400.156 692.768 393.206 709.873 379.307 723.886C365.408 737.898 347.989 744.904 327.051 744.904C306.112 744.904 288.693 737.898 274.794 723.886Z" fill="#88E5DA"/>
<path d="M166.727 317.281C250.902 232.305 325.989 187.698 391.99 183.46L355.597 147.411C288.09 160.102 218.287 202.84 146.188 275.625L111.559 310.584L82.2579 340.164L113.452 371.064L166.727 317.281Z" fill="#E85A5A"/>
<path d="M278.57 474.403V427.516V387.843H236.011V459.976C236.011 623.479 200.546 705.23 129.616 705.23C124.887 705.23 120.158 704.509 115.43 703.066V741.297L117.558 742.74C118.976 743.221 121.577 743.701 125.36 744.182C129.143 744.663 133.162 744.904 137.418 744.904C150.658 744.904 162.717 743.461 173.593 740.576C184.942 737.69 197.473 730.958 211.186 720.378C224.899 709.318 236.248 694.651 245.232 676.377C254.69 657.622 262.492 630.933 268.639 596.308C275.26 561.684 278.57 521.049 278.57 474.403Z" fill="#E85A5A"/>
<path d="M577.315 255.113C601.315 247.82 627.727 235.853 656.551 219.211C635.247 229.05 617.085 216.358 610.667 208.783C571.53 228.097 537.684 235.331 509.129 230.486C480.574 225.641 454.574 206.809 431.129 173.99C430.418 172.759 429.11 170.848 427.205 168.256C418.873 156.658 411.938 147.124 406.4 139.656C400.555 132.365 394.516 125.801 388.284 119.964C382.052 114.127 376.031 110.424 370.22 108.857C364.231 106.982 357.548 106.738 350.172 108.125C342.796 109.512 334.508 112.861 325.309 118.172L316.11 123.483L330.765 148.866L335.364 146.21C345.048 141.029 353.861 141.069 361.803 146.329C364.984 149.005 376.916 163.652 397.599 190.271C408.983 205.031 419.647 217.128 429.592 226.565C439.053 235.87 451.565 244.44 467.127 252.274C482.382 260.286 498.517 264.508 515.529 264.941C532.542 265.374 553.138 262.098 577.315 255.113Z" fill="#CACC4E"/>
<path d="M97.0285 534.45L273.877 228.14L315.41 252.119L138.562 558.429L97.0285 534.45Z" fill="#F68E5F"/>
<path d="M38.6858 680.755C44.8129 706.12 59.7405 726.755 83.4688 742.662C84.5264 743.371 85.5862 744.06 86.6482 744.729L100.956 723.385L195.177 582.835L185.728 576.5C163.469 561.579 140.589 555.984 117.088 559.715C93.3768 563.305 72.7136 578.239 55.0985 604.516C38.1661 629.774 32.6952 655.187 38.6858 680.755Z" fill="#FAF19D"/>
<path d="M315.512 301.655V212.39H339.715H372.562C386.623 212.39 398.379 213.625 407.83 216.095C417.511 218.341 424.657 221.71 429.267 226.201C433.877 230.468 437.104 235.071 438.948 240.012C440.792 244.728 441.714 250.342 441.714 256.854C441.714 263.367 440.792 269.093 438.948 274.034C437.104 278.75 433.877 283.353 429.267 287.845C424.657 292.111 417.511 295.48 407.83 297.95C398.379 300.42 386.623 301.655 372.562 301.655H315.512Z" fill="#FAF19D"/>
<path d="M334.513 572.109C335.243 574.303 335.881 576.04 336.429 577.32L413.174 654.065L418.384 655.98C421.675 657.441 426.337 658.626 432.372 659.535C438.406 660.078 444.898 660.164 451.848 659.793C458.798 659.421 466.572 657.311 475.17 653.464C483.952 649.433 492.095 643.665 499.599 636.161C517.903 617.858 525.968 595.723 523.795 569.755C521.623 543.788 510.395 520.664 490.113 500.381C469.465 479.733 446.34 468.323 420.739 466.15C395.137 463.977 372.544 472.682 352.96 492.267C345.822 499.405 340.42 507.365 336.755 516.146C332.907 524.745 330.798 532.336 330.426 538.92C329.872 545.322 330.233 551.905 331.507 558.67C332.599 565.253 333.601 569.733 334.513 572.109Z" fill="#FAF19D"/>
</svg>
