<svg width="429" height="842" viewBox="0 0 429 842" fill="none" xmlns="http://www.w3.org/2000/svg">
<path d="M-69.6118 346C-87.0659 366.422 -95.793 389.973 -95.793 416.653C-95.793 443.333 -87.0659 466.884 -69.6118 487.306C-52.1577 507.728 -27.3192 517.939 4.90375 517.939C37.1267 517.939 61.9652 507.728 79.4193 487.306C96.8734 466.884 105.601 443.333 105.601 416.653C105.601 389.973 96.8734 366.422 79.4193 346C61.9652 325.579 37.1267 315.368 4.90375 315.368C-27.3192 315.368 -52.1577 325.579 -69.6118 346Z" fill="#88E5DA"/>
<path d="M334.641 478.393C317.473 475.118 301.011 465.601 285.253 449.843C264.171 428.761 254.493 406.71 256.218 383.691C258.156 360.884 267.596 340.37 284.54 322.149L262.227 299.836C239.796 323.591 228.126 350.775 227.217 381.388C226.478 413.643 239.312 442.973 265.717 469.378C286.373 490.034 308.823 502.933 333.067 508.076C357.311 513.219 380.365 507.838 402.231 491.935L379.872 469.576C367.315 478.725 352.238 481.664 334.641 478.393Z" fill="#E85A5A"/>
<path d="M172.833 700.427L125.671 747.59L180.247 802.166L194.601 787.812L188.537 781.748C180.721 773.932 176.971 766.902 177.287 760.656C177.873 754.68 184.454 745.404 197.031 732.827L254.446 675.412C267.843 662.015 278.787 649.993 287.278 639.346C295.769 628.699 303.05 616.567 309.119 602.951C315.462 589.062 318.272 575.741 317.549 562.988C317.369 550.232 313.398 536.145 305.637 520.728C298.145 505.581 286.313 489.922 270.142 473.751C243.73 447.339 214.385 432.484 182.106 429.187C150.101 425.616 121.796 436.133 97.1891 460.74L125.488 489.039C141.619 472.908 160.269 465.038 181.439 465.429C202.879 466.09 224.244 477.066 245.536 498.358C269.792 522.614 281.034 544.792 279.261 564.892C278.031 584.987 268.392 604.329 250.344 622.917L227.788 645.473L195.389 677.871L172.833 700.427Z" fill="#CACC4E"/>
<path d="M163.921 271.917C191.854 263.429 222.594 249.501 256.141 230.132C231.346 241.583 210.208 226.811 202.739 217.994C157.188 240.474 117.796 248.894 84.5617 243.254C51.3276 237.615 21.0671 215.697 -6.21997 177.501C-7.04693 176.068 -8.56917 173.844 -10.7867 170.827C-20.4837 157.328 -28.5552 146.233 -35.001 137.541C-41.8037 129.055 -48.8317 121.415 -56.0848 114.622C-63.338 107.828 -70.3463 103.519 -77.1097 101.695C-84.0799 99.5122 -91.8574 99.2282 -100.442 100.843C-109.027 102.457 -118.673 106.355 -129.379 112.536L-140.086 118.718L-123.03 148.259L-117.677 145.169C-106.407 139.139 -96.1493 139.185 -86.905 145.307C-83.2033 148.421 -69.3161 165.469 -45.2433 196.45C-31.9947 213.628 -19.583 227.708 -8.00798 238.69C3.00343 249.521 17.5652 259.495 35.6773 268.613C53.4325 277.937 72.2104 282.851 92.0111 283.355C111.812 283.859 135.782 280.046 163.921 271.917Z" fill="#CACC4E"/>
<path d="M256.675 182.129L-1.03516 125.225L-10.9228 170.004L38.9566 181.018L188.595 214.059L246.788 226.909L256.675 182.129Z" fill="#F68E5F"/>
<path d="M186.842 429.732L99.3828 379.237L130.601 325.166C146.937 296.871 162.071 278.476 176.003 269.982C189.935 261.488 204.613 261.693 220.036 270.597C235.459 279.502 243.163 292.219 243.149 308.749C242.759 325.061 234.396 347.365 218.06 375.661L186.842 429.732Z" fill="#FAF19D"/>
<path d="M-139.363 325.967V222.326H-111.356H-73.3453C-57.0742 222.326 -43.4705 223.76 -32.5342 226.628C-21.3311 229.236 -13.0623 233.147 -7.72751 238.361C-2.39272 243.315 1.3417 248.66 3.47561 254.396C5.60953 259.872 6.67644 266.39 6.67644 273.951C6.67644 281.512 5.60953 288.161 3.47561 293.897C1.3417 299.373 -2.39272 304.718 -7.72751 309.932C-13.0623 314.886 -21.3311 318.797 -32.5342 321.665C-43.4705 324.533 -57.0742 325.967 -73.3453 325.967H-139.363Z" fill="#FAF19D"/>
<path d="M-118.667 640.858C-117.818 643.411 -117.075 645.433 -116.437 646.922L-27.1168 736.242L-21.0526 738.472C-17.2227 740.172 -11.7963 741.551 -4.77328 742.609C2.25013 743.242 9.80611 743.342 17.8947 742.909C25.9832 742.477 35.0312 740.021 45.0388 735.543C55.2594 730.852 64.7368 724.139 73.4709 715.405C94.7735 694.103 104.16 668.34 101.632 638.118C99.103 607.896 86.0356 580.982 62.4295 557.376C38.398 533.344 11.4841 520.064 -18.3123 517.535C-48.1088 515.006 -74.4039 525.138 -97.1977 547.932C-105.506 556.24 -111.793 565.504 -116.058 575.724C-120.536 585.732 -122.991 594.567 -123.424 602.23C-124.068 609.68 -123.649 617.342 -122.166 625.216C-120.895 632.878 -119.729 638.092 -118.667 640.858Z" fill="#FAF19D"/>
</svg>
