<svg width="390" height="540" viewBox="0 0 390 540" fill="none" xmlns="http://www.w3.org/2000/svg">
<path d="M165.332 236.375C123.224 226.976 81.7172 234.084 40.8125 257.701C38.9892 258.753 37.194 259.824 35.4267 260.912L56.67 297.706L196.558 540L212.848 530.595C251.219 508.442 276.202 478.567 287.799 440.97C299.758 403.165 292.66 361.613 266.507 316.314C241.368 272.772 207.643 246.125 165.332 236.375Z" fill="#FAF19D"/>
<path d="M310.844 105.156C309.263 125.133 300.479 145.089 284.494 165.024C263.109 191.694 239.189 205.489 212.736 206.408C186.499 207.057 161.936 198.868 139.045 181.841L116.41 210.069C146.296 232.657 178.741 242.55 213.747 239.75C250.602 236.549 282.422 218.246 309.208 184.842C330.162 158.71 342.05 131.506 344.873 103.23C347.696 74.9533 338.674 49.351 317.808 26.4229L295.126 54.7092C307.128 67.8739 312.367 84.6896 310.844 105.156Z" fill="#E85A5A"/>
<path d="M-34.64 373.161C-49.5467 390.602 -57 410.715 -57 433.5C-57 456.285 -49.5467 476.398 -34.64 493.839C-19.7333 511.28 1.47999 520 29 520C56.52 520 77.7333 511.28 92.64 493.839C107.547 476.398 115 456.285 115 433.5C115 410.715 107.547 390.602 92.64 373.161C77.7333 355.72 56.52 347 29 347C1.47999 347 -19.7333 355.72 -34.64 373.161Z" fill="#88E5DA"/>
</svg>
