<svg width="294" height="684" viewBox="0 0 294 684" fill="none" xmlns="http://www.w3.org/2000/svg">
<path d="M232.255 84.9552C224.226 212.198 195.196 300.654 145.166 350.321L199.66 353.76C244.974 296.249 271.071 212.999 277.949 104.01L281.252 51.6628L284.047 7.36927L237.338 4.42156L232.255 84.9552Z" fill="#E85A5A"/>
<path d="M60.9852 438.447C39.9583 463.539 19.6301 495.46 0.000540002 534.21C16.2647 508.26 45.1682 509.174 57.5869 512.874C86.5814 463.845 118.411 431.793 153.075 416.717C187.739 401.641 229.59 403.674 278.626 422.816C280.28 423.654 283.073 424.81 287.005 426.284C304.385 433.016 318.765 438.487 330.146 442.698C341.735 446.497 353.018 449.363 363.993 451.296C374.968 453.23 384.19 452.98 391.659 450.548C399.542 448.325 407.02 443.824 414.092 437.046C421.163 430.268 427.832 420.695 434.096 408.328L440.361 395.961L406.238 378.675L403.105 384.859C396.218 397.428 386.558 403.672 374.125 403.591C368.74 402.935 345.25 395.439 303.655 381.103C280.685 373.093 260.399 367.479 242.798 364.261C225.819 360.841 206.032 360.4 183.435 362.94C161.047 365.068 140.402 371.964 121.5 383.627C102.597 395.291 82.4257 413.564 60.9852 438.447Z" fill="#CACC4E"/>
<path d="M30.1872 260.476C25.8047 278.296 27.6826 295.407 35.8208 311.809C43.959 328.211 56.4486 340.057 73.2895 347.347C90.1304 354.636 108.346 353.421 127.937 343.701C147.528 333.98 159.514 320.21 163.897 302.39C168.279 284.57 166.401 267.459 158.263 251.057C150.125 234.655 137.635 222.809 120.794 215.519C103.954 208.23 85.7377 209.445 66.1469 219.165C46.5561 228.886 34.5696 242.656 30.1872 260.476Z" fill="#88E5DA"/>
</svg>
