<svg width="38" height="42" viewBox="0 0 38 42" fill="none" xmlns="http://www.w3.org/2000/svg">
<path d="M21.5 2.50001C21.5 1.11929 20.3807 3.43928e-06 19 0C17.6193 -3.43929e-06 16.5 1.11928 16.5 2.49999L21.5 2.50001ZM17.2321 40.7678C18.2084 41.7441 19.7914 41.7441 20.7677 40.7678L36.6776 24.8579C37.6539 23.8816 37.6539 22.2987 36.6776 21.3224C35.7013 20.3461 34.1184 20.3461 33.1421 21.3224L18.9999 35.4645L4.85782 21.3223C3.88151 20.346 2.2986 20.346 1.32229 21.3223C0.345973 22.2986 0.345969 23.8815 1.32228 24.8578L17.2321 40.7678ZM16.5 2.49999L16.4999 39L21.4999 39L21.5 2.50001L16.5 2.49999Z" fill="#03195A"/>
</svg>
