<svg width="59" height="63" viewBox="0 0 59 63" fill="none" xmlns="http://www.w3.org/2000/svg">
<path d="M22.8122 11.5848C22.8122 25.7947 19.7018 35.8375 14.296 41.7133H20.2358C25.0409 34.9981 27.8511 25.5548 27.8511 13.3835V9.96338L22.8122 9.96338V11.5848Z" fill="#233363"/>
<path d="M37.5191 8.19531H22.8089L22.8003 13.1988H23.5593H24.5151H37.5191V8.19531Z" fill="#233363"/>
<path d="M41.7279 0.723633V40.0162H46.5346V44.9842H4.83337V54.8879H0L0 40.0162H7.17642C12.5587 34.1148 15.2499 24.0282 15.2499 9.75641V0.723633H41.7279ZM36.7792 5.69166H20.3321V11.563C20.3321 23.7873 17.94 33.2718 13.1557 40.0162H36.7792V5.69166Z" fill="#E85A5A"/>
<path d="M49.0762 47.4413V8.19531H44.1921V13.3282V47.4413H20.8588H14.5768H7.39737V62.2761H12.3675V52.3788H54.0296V62.2761H58.9997V47.4413H49.0762Z" fill="#233363"/>
</svg>
