<svg width="52" height="50" viewBox="0 0 52 50" fill="none" xmlns="http://www.w3.org/2000/svg">
<g clip-path="url(#clip0)">
<path fill-rule="evenodd" clip-rule="evenodd" d="M0 25.1794C0 37.5887 9.38817 47.9076 21.6667 50.0001V31.9727H15.1667V25.0401H21.6667V19.4927C21.6667 13.2527 25.8548 9.78744 31.7785 9.78744C33.6548 9.78744 35.6785 10.0641 37.5548 10.3407V16.7201H34.2333C31.0548 16.7201 30.3333 18.2447 30.3333 20.1874V25.0401H37.2667L36.1118 31.9727H30.3333V50.0001C42.6118 47.9076 52 37.5908 52 25.1794C52 11.3745 40.3 0.0800781 26 0.0800781C11.7 0.0800781 0 11.3745 0 25.1794Z" fill="white"/>
</g>
<defs>
<clipPath id="clip0">
<rect width="52" height="49.92" fill="white" transform="translate(0 0.0800781)"/>
</clipPath>
</defs>
</svg>
