<svg width="52" height="52" viewBox="0 0 52 52" fill="none" xmlns="http://www.w3.org/2000/svg">
<path fill-rule="evenodd" clip-rule="evenodd" d="M16.1755 2.30902C18.717 2.19202 19.5273 2.16602 26.0013 2.16602C32.4753 2.16602 33.2856 2.19418 35.825 2.30902C38.3643 2.42385 40.0976 2.82902 41.6143 3.41618C43.2025 4.01635 44.6433 4.95451 45.835 6.16785C47.0483 7.35735 47.9843 8.79601 48.5823 10.3863C49.1716 11.903 49.5746 13.6363 49.6916 16.1713C49.8086 18.7172 49.8346 19.5275 49.8346 25.9993C49.8346 32.4733 49.8065 33.2837 49.6916 35.8252C49.5768 38.3602 49.1716 40.0935 48.5823 41.6102C47.9843 43.2007 47.0467 44.6418 45.835 45.833C44.6433 47.0463 43.2025 47.9823 41.6143 48.5803C40.0976 49.1697 38.3643 49.5727 35.8293 49.6897C33.2856 49.8067 32.4753 49.8327 26.0013 49.8327C19.5273 49.8327 18.717 49.8045 16.1755 49.6897C13.6405 49.5748 11.9071 49.1697 10.3905 48.5803C8.79996 47.9823 7.35891 47.0447 6.16764 45.833C4.95513 44.6428 4.01682 43.2024 3.41814 41.6123C2.83097 40.0957 2.42797 38.3623 2.31097 35.8273C2.19397 33.2815 2.16797 32.4712 2.16797 25.9993C2.16797 19.5253 2.19614 18.715 2.31097 16.1757C2.4258 13.6363 2.83097 11.903 3.41814 10.3863C4.0177 8.79619 4.95673 7.35586 6.1698 6.16568C7.35939 4.95343 8.79899 4.01514 10.3883 3.41618C11.905 2.82902 13.6383 2.42602 16.1733 2.30902H16.1755ZM35.6321 6.59901C33.1188 6.48418 32.3648 6.46035 26.0013 6.46035C19.6378 6.46035 18.8838 6.48418 16.3705 6.59901C14.0456 6.70518 12.7846 7.09301 11.944 7.42018C10.8325 7.85351 10.0373 8.36701 9.20314 9.20118C8.4124 9.97046 7.80386 10.907 7.42213 11.942C7.09497 12.7827 6.70714 14.0437 6.60097 16.3685C6.48614 18.8818 6.4623 19.6358 6.4623 25.9993C6.4623 32.3628 6.48614 33.1168 6.60097 35.6302C6.70714 37.955 7.09497 39.216 7.42213 40.0567C7.80347 41.0902 8.4123 42.0283 9.20314 42.7975C9.9723 43.5883 10.9105 44.1972 11.944 44.5785C12.7846 44.9057 14.0456 45.2935 16.3705 45.3997C18.8838 45.5145 19.6356 45.5383 26.0013 45.5383C32.367 45.5383 33.1188 45.5145 35.6321 45.3997C37.957 45.2935 39.218 44.9057 40.0586 44.5785C41.1701 44.1452 41.9653 43.6317 42.7995 42.7975C43.5903 42.0283 44.1991 41.0902 44.5805 40.0567C44.9076 39.216 45.2955 37.955 45.4016 35.6302C45.5165 33.1168 45.5403 32.3628 45.5403 25.9993C45.5403 19.6358 45.5165 18.8818 45.4016 16.3685C45.2955 14.0437 44.9076 12.7827 44.5805 11.942C44.1471 10.8305 43.6336 10.0353 42.7995 9.20118C42.0301 8.4105 41.0937 7.80197 40.0586 7.42018C39.218 7.09301 37.957 6.70518 35.6321 6.59901V6.59901ZM22.9571 33.3465C24.6572 34.0542 26.5503 34.1497 28.313 33.6167C30.0757 33.0838 31.5986 31.9553 32.6218 30.4242C33.6449 28.8931 34.1048 27.0542 33.9227 25.2217C33.7407 23.3892 32.9281 21.6768 31.6238 20.3768C30.7923 19.5459 29.7869 18.9096 28.68 18.5138C27.5731 18.1181 26.3922 17.9726 25.2224 18.088C24.0525 18.2034 22.9228 18.5767 21.9145 19.1811C20.9063 19.7855 20.0446 20.606 19.3915 21.5834C18.7383 22.5608 18.31 23.6708 18.1374 24.8336C17.9648 25.9964 18.0521 27.183 18.3931 28.308C18.7341 29.4329 19.3203 30.4683 20.1095 31.3396C20.8987 32.2108 21.8713 32.8962 22.9571 33.3465ZM17.339 17.337C18.4765 16.1995 19.827 15.2971 21.3133 14.6815C22.7996 14.0658 24.3926 13.749 26.0013 13.749C27.61 13.749 29.203 14.0658 30.6893 14.6815C32.1756 15.2971 33.5261 16.1995 34.6636 17.337C35.8012 18.4746 36.7035 19.825 37.3192 21.3113C37.9348 22.7976 38.2517 24.3906 38.2517 25.9993C38.2517 27.6081 37.9348 29.2011 37.3192 30.6874C36.7035 32.1737 35.8012 33.5241 34.6636 34.6617C32.3662 36.9591 29.2503 38.2497 26.0013 38.2497C22.7523 38.2497 19.6364 36.9591 17.339 34.6617C15.0416 32.3643 13.7509 29.2483 13.7509 25.9993C13.7509 22.7503 15.0416 19.6344 17.339 17.337V17.337ZM40.9686 15.5733C41.2505 15.3074 41.4762 14.9877 41.6323 14.633C41.7884 14.2783 41.8717 13.8958 41.8774 13.5084C41.883 13.1209 41.8109 12.7362 41.6652 12.3771C41.5195 12.018 41.3032 11.6918 41.0292 11.4178C40.7552 11.1437 40.429 10.9275 40.0699 10.7818C39.7108 10.6361 39.3261 10.564 38.9386 10.5696C38.5511 10.5753 38.1687 10.6586 37.814 10.8147C37.4593 10.9708 37.1395 11.1965 36.8736 11.4783C36.3565 12.0266 36.0733 12.7548 36.0843 13.5084C36.0953 14.2619 36.3995 14.9816 36.9325 15.5145C37.4654 16.0474 38.185 16.3517 38.9386 16.3627C39.6922 16.3736 40.4204 16.0905 40.9686 15.5733V15.5733Z" fill="white"/>
</svg>
