<svg width="40" height="41" viewBox="0 0 40 41" fill="none" xmlns="http://www.w3.org/2000/svg">
<path d="M15.1951 7.23481C15.1951 16.7 13.1232 23.3895 9.52246 27.3033H13.4789C16.6796 22.8303 18.5514 16.5402 18.5514 8.43293V6.15479H15.1951V7.23481Z" fill="#E85A5A"/>
<path d="M24.9913 4.97705H15.1929L15.1871 8.30984H15.6927H16.3293H24.9913V4.97705Z" fill="#E85A5A"/>
<path d="M27.7949 0V26.1727H30.9966V29.4819H3.2195V36.0787H0L0 26.1727H4.7802C8.36535 22.2418 10.1579 15.5231 10.1579 6.01671V0H27.7949ZM24.4985 3.30919H13.5432V7.22006C13.5432 15.3627 11.9498 21.6802 8.76299 26.1727H24.4985V3.30919Z" fill="#FAF19D"/>
<path d="M32.6895 31.1187V4.97705H29.4362V8.39603V31.1187H13.894H9.70959H4.92737V41.0002H8.23794V34.4076H35.989V41.0002H39.2996V31.1187H32.6895Z" fill="#E85A5A"/>
</svg>
