<svg width="377" height="552" viewBox="0 0 377 552" fill="none" xmlns="http://www.w3.org/2000/svg">
<path d="M-43.4873 410.549C-82.1101 398.813 -124.614 379.554 -171 352.773C-136.716 368.606 -107.488 348.182 -97.16 335.99C-34.177 367.072 20.2908 378.715 66.2436 370.917C112.196 363.12 154.038 332.814 191.768 279.999C192.911 278.019 195.016 274.943 198.082 270.772C211.49 252.107 222.651 236.765 231.563 224.747C240.97 213.013 250.687 202.45 260.716 193.056C270.745 183.663 280.435 177.705 289.787 175.182C299.425 172.164 310.179 171.772 322.049 174.004C333.92 176.236 347.257 181.626 362.061 190.173L376.865 198.72L353.281 239.567L345.879 235.294C330.296 226.957 316.113 227.02 303.331 235.484C298.213 239.791 279.011 263.363 245.725 306.201C227.407 329.953 210.245 349.421 194.24 364.607C179.015 379.582 158.88 393.373 133.836 405.981C109.286 418.873 83.3217 425.668 55.9433 426.365C28.5648 427.062 -4.57874 421.79 -43.4873 410.549Z" fill="#CACC4E"/>
</svg>
