<svg width="52" height="52" viewBox="0 0 52 52" fill="none" xmlns="http://www.w3.org/2000/svg">
<path fill-rule="evenodd" clip-rule="evenodd" d="M52 26C52 40.3585 40.3585 52 26 52C11.6415 52 0 40.3585 0 26C0 11.6415 11.6415 0 26 0C40.3585 0 52 11.6415 52 26ZM26.9317 19.1945C24.4032 20.2453 19.3483 22.4228 11.7693 25.7248C10.5387 26.2145 9.893 26.6933 9.8345 27.1613C9.73483 27.9543 10.7272 28.2663 12.0748 28.6888C12.259 28.7473 12.4497 28.8058 12.6447 28.8708C13.9728 29.302 15.7582 29.8068 16.6855 29.8263C17.5283 29.8437 18.4687 29.497 19.5065 28.7863C26.5872 24.0045 30.2423 21.5887 30.472 21.5367C30.6345 21.4998 30.8598 21.4522 31.0115 21.5887C31.1632 21.723 31.148 21.9787 31.1328 22.048C31.0332 22.4662 27.1462 26.0823 25.1312 27.9543C24.5028 28.5372 24.0587 28.951 23.9677 29.0463C23.764 29.2565 23.556 29.458 23.3567 29.6508C22.1217 30.8382 21.1987 31.7308 23.4087 33.1868C24.4703 33.8867 25.3197 34.4652 26.1668 35.0415C27.092 35.672 28.015 36.3003 29.211 37.0847C29.5143 37.284 29.8047 37.4898 30.0885 37.6913C31.1653 38.4605 32.1338 39.1495 33.3298 39.0412C34.0232 38.9762 34.7425 38.324 35.1065 36.3762C35.9667 31.7698 37.661 21.7945 38.0532 17.6822C38.077 17.3407 38.0625 16.9977 38.0098 16.6595C37.9783 16.3864 37.8453 16.135 37.6372 15.9553C37.3273 15.7018 36.8463 15.6477 36.6297 15.652C35.6525 15.6693 34.1532 16.1915 26.9317 19.1945Z" fill="white"/>
</svg>
