<svg width="648" height="89" viewBox="0 0 648 89" fill="none" xmlns="http://www.w3.org/2000/svg">
<path d="M1.1 72.9231V71.4831C1.86 71.4831 2.46667 71.3431 2.92 71.0631C3.37333 70.7831 3.77333 70.3365 4.12 69.7231H5.64V83.7231H3.96V71.9831C3.58667 72.3565 3.18667 72.6098 2.76 72.7431C2.33333 72.8631 1.78 72.9231 1.1 72.9231ZM14.3716 77.0431V73.8031H15.9316V77.1031C15.9316 77.9298 16.1316 78.5498 16.5316 78.9631C16.9316 79.3765 17.4982 79.5831 18.2316 79.5831C19.0316 79.5831 19.6582 79.2831 20.1116 78.6831C20.5782 78.0831 20.8116 77.2831 20.8116 76.2831V73.8031H22.3716V83.7231H20.8116V79.0431C20.5716 79.6565 20.1849 80.1365 19.6516 80.4831C19.1316 80.8165 18.5182 80.9831 17.8116 80.9831C16.8249 80.9831 16.0049 80.6498 15.3516 79.9831C14.6982 79.3165 14.3716 78.3365 14.3716 77.0431ZM33.5723 83.7231H32.0123C31.6123 83.2165 31.4123 82.5631 31.4123 81.7631C31.1057 82.4831 30.6523 83.0365 30.0523 83.4231C29.4657 83.8098 28.7923 84.0031 28.0323 84.0031C27.0323 84.0031 26.2257 83.7231 25.6123 83.1631C24.999 82.5898 24.6923 81.8631 24.6923 80.9831C24.6923 80.0765 25.0057 79.3565 25.6323 78.8231C26.259 78.2765 27.0857 77.9165 28.1123 77.7431L31.4123 77.2031V76.7631C31.4123 75.4831 30.6323 74.8431 29.0723 74.8431C28.3257 74.8431 27.7457 74.9898 27.3323 75.2831C26.9323 75.5765 26.7323 75.9431 26.7323 76.3831C26.7323 76.5165 26.7457 76.6165 26.7723 76.6831L25.4123 77.1431C25.3057 76.8631 25.2523 76.5965 25.2523 76.3431C25.2523 75.5698 25.599 74.9098 26.2923 74.3631C26.999 73.8031 27.9257 73.5231 29.0723 73.5231C30.3657 73.5231 31.339 73.8098 31.9923 74.3831C32.6457 74.9431 32.9723 75.7365 32.9723 76.7631V81.2431C32.9723 81.8165 33.0123 82.2765 33.0923 82.6231C33.1723 82.9565 33.3323 83.3231 33.5723 83.7231ZM28.2123 82.6031C29.2123 82.6031 29.9923 82.2298 30.5523 81.4831C31.1257 80.7231 31.4123 79.8098 31.4123 78.7431V78.4431L28.3923 78.9631C26.9923 79.2031 26.2923 79.8498 26.2923 80.9031C26.2923 81.4231 26.459 81.8365 26.7923 82.1431C27.139 82.4498 27.6123 82.6031 28.2123 82.6031ZM43.6545 80.4231L44.7745 81.1431C43.8012 83.0498 42.3145 84.0031 40.3145 84.0031C38.8745 84.0031 37.6679 83.5098 36.6945 82.5231C35.7212 81.5365 35.2345 80.2831 35.2345 78.7631C35.2345 77.2565 35.7279 76.0098 36.7145 75.0231C37.7145 74.0231 38.9145 73.5231 40.3145 73.5231C41.3812 73.5231 42.2879 73.7631 43.0345 74.2431C43.7945 74.7098 44.3545 75.3765 44.7145 76.2431L43.5345 77.0231C42.8812 75.6231 41.8145 74.9231 40.3345 74.9231C39.3212 74.9231 38.4745 75.2765 37.7945 75.9831C37.1279 76.6898 36.7945 77.6165 36.7945 78.7631C36.7945 79.9098 37.1279 80.8365 37.7945 81.5431C38.4612 82.2498 39.3079 82.6031 40.3345 82.6031C41.1212 82.6031 41.7745 82.4231 42.2945 82.0631C42.8145 81.6898 43.2679 81.1431 43.6545 80.4231Z" fill="#FAF19D"/>
<path d="M186.1 71.9231V70.4831C186.86 70.4831 187.467 70.3431 187.92 70.0631C188.373 69.7831 188.773 69.3365 189.12 68.7231H190.64V82.7231H188.96V70.9831C188.587 71.3565 188.187 71.6098 187.76 71.7431C187.333 71.8631 186.78 71.9231 186.1 71.9231ZM208.752 81.3631V84.8431H207.352V82.7231H200.152V84.8431H198.752V81.3631H199.672C200.205 80.3365 200.538 79.2165 200.672 78.0031L201.192 72.8031H207.832V81.3631H208.752ZM202.632 74.1631L202.252 78.1031C202.132 79.2631 201.832 80.3498 201.352 81.3631H206.272V74.1631H202.632ZM219.995 78.0231H211.795C211.848 79.0898 212.181 79.9698 212.795 80.6631C213.408 81.3431 214.215 81.6831 215.215 81.6831C216.055 81.6831 216.728 81.4898 217.235 81.1031C217.755 80.7031 218.195 80.1431 218.555 79.4231L219.695 80.1031C218.695 82.0365 217.181 83.0031 215.155 83.0031C213.781 83.0031 212.615 82.5098 211.655 81.5231C210.708 80.5231 210.235 79.2698 210.235 77.7631C210.235 76.2431 210.715 74.9898 211.675 74.0031C212.635 73.0165 213.815 72.5231 215.215 72.5231C216.681 72.5231 217.841 72.9831 218.695 73.9031C219.561 74.8231 219.995 76.0165 219.995 77.4831V78.0231ZM215.215 73.8431C214.348 73.8431 213.628 74.1098 213.055 74.6431C212.495 75.1631 212.115 75.8631 211.915 76.7431H218.435C218.381 75.8631 218.035 75.1631 217.395 74.6431C216.768 74.1098 216.041 73.8431 215.215 73.8431ZM223.959 72.8031V76.8031H228.799V72.8031H230.359V82.7231H228.799V78.1631H223.959V82.7231H222.399V72.8031H223.959ZM234.857 76.9231H237.537C238.617 76.9231 239.464 77.2031 240.077 77.7631C240.691 78.3231 240.997 79.0365 240.997 79.9031C240.997 80.7431 240.677 81.4231 240.037 81.9431C239.411 82.4631 238.577 82.7231 237.537 82.7231H233.297V72.8031H234.857V76.9231ZM234.857 78.2031V81.3631H237.657C238.191 81.3631 238.617 81.2231 238.937 80.9431C239.271 80.6498 239.437 80.2631 239.437 79.7831C239.437 79.3031 239.271 78.9231 238.937 78.6431C238.617 78.3498 238.191 78.2031 237.657 78.2031H234.857Z" fill="#FAF19D"/>
<path d="M356.1 72.9231V71.4831C356.86 71.4831 357.467 71.3431 357.92 71.0631C358.373 70.7831 358.773 70.3365 359.12 69.7231H360.64V83.7231H358.96V71.9831C358.587 72.3565 358.187 72.6098 357.76 72.7431C357.333 72.8631 356.78 72.9231 356.1 72.9231ZM363.284 78.1231V76.8831H370.484V78.1231H363.284ZM372.585 82.6231L377.985 77.2031C378.719 76.4698 379.225 75.8365 379.505 75.3031C379.785 74.7698 379.925 74.1831 379.925 73.5431C379.925 72.7431 379.652 72.0965 379.105 71.6031C378.572 71.0965 377.885 70.8431 377.045 70.8431C376.245 70.8431 375.579 71.1031 375.045 71.6231C374.512 72.1431 374.245 72.8165 374.245 73.6431C374.245 73.9498 374.299 74.2498 374.405 74.5431L372.925 74.7831C372.765 74.3698 372.685 73.9298 372.685 73.4631C372.685 72.3965 373.099 71.4631 373.925 70.6631C374.765 69.8498 375.825 69.4431 377.105 69.4431C378.439 69.4431 379.512 69.8098 380.325 70.5431C381.152 71.2631 381.565 72.1898 381.565 73.3231C381.565 74.1765 381.379 74.9765 381.005 75.7231C380.645 76.4698 380.005 77.3031 379.085 78.2231L375.085 82.2431H381.625V83.7231H372.585V82.6231ZM391.752 73.8031V77.8031H396.592V73.8031H398.152V83.7231H396.592V79.1631H391.752V83.7231H390.192V73.8031H391.752ZM410.268 79.0231H402.068C402.121 80.0898 402.455 80.9698 403.068 81.6631C403.681 82.3431 404.488 82.6831 405.488 82.6831C406.328 82.6831 407.001 82.4898 407.508 82.1031C408.028 81.7031 408.468 81.1431 408.828 80.4231L409.968 81.1031C408.968 83.0365 407.455 84.0031 405.428 84.0031C404.055 84.0031 402.888 83.5098 401.928 82.5231C400.981 81.5231 400.508 80.2698 400.508 78.7631C400.508 77.2431 400.988 75.9898 401.948 75.0031C402.908 74.0165 404.088 73.5231 405.488 73.5231C406.955 73.5231 408.115 73.9831 408.968 74.9031C409.835 75.8231 410.268 77.0165 410.268 78.4831V79.0231ZM405.488 74.8431C404.621 74.8431 403.901 75.1098 403.328 75.6431C402.768 76.1631 402.388 76.8631 402.188 77.7431H408.708C408.655 76.8631 408.308 76.1631 407.668 75.6431C407.041 75.1098 406.315 74.8431 405.488 74.8431ZM421.115 82.3631V85.8431H419.715V83.7231H412.515V85.8431H411.115V82.3631H412.035C412.568 81.3365 412.902 80.2165 413.035 79.0031L413.555 73.8031H420.195V82.3631H421.115ZM414.995 75.1631L414.615 79.1031C414.495 80.2631 414.195 81.3498 413.715 82.3631H418.635V75.1631H414.995ZM432.358 79.0231H424.158C424.211 80.0898 424.544 80.9698 425.158 81.6631C425.771 82.3431 426.578 82.6831 427.578 82.6831C428.418 82.6831 429.091 82.4898 429.598 82.1031C430.118 81.7031 430.558 81.1431 430.918 80.4231L432.058 81.1031C431.058 83.0365 429.544 84.0031 427.518 84.0031C426.144 84.0031 424.978 83.5098 424.018 82.5231C423.071 81.5231 422.598 80.2698 422.598 78.7631C422.598 77.2431 423.078 75.9898 424.038 75.0031C424.998 74.0165 426.178 73.5231 427.578 73.5231C429.044 73.5231 430.204 73.9831 431.058 74.9031C431.924 75.8231 432.358 77.0165 432.358 78.4831V79.0231ZM427.578 74.8431C426.711 74.8431 425.991 75.1098 425.418 75.6431C424.858 76.1631 424.478 76.8631 424.278 77.7431H430.798C430.744 76.8631 430.398 76.1631 429.758 75.6431C429.131 75.1098 428.404 74.8431 427.578 74.8431ZM442.426 73.8031V83.7231H440.866V75.1631H436.946L436.286 82.0831C436.22 82.6698 436.02 83.1165 435.686 83.4231C435.366 83.7165 434.96 83.8631 434.466 83.8631C434.146 83.8631 433.813 83.8165 433.466 83.7231L433.686 82.3631C433.86 82.4298 434.013 82.4631 434.146 82.4631C434.346 82.4631 434.486 82.4031 434.566 82.2831C434.66 82.1631 434.72 81.9765 434.746 81.7231L435.506 73.8031H442.426ZM446.928 73.8031V81.6231L451.768 73.8031H453.528V83.7231H451.968V75.9031L447.128 83.7231H445.368V73.8031H446.928Z" fill="#FAF19D"/>
<path d="M548.1 72.9231V71.4831C548.86 71.4831 549.467 71.3431 549.92 71.0631C550.373 70.7831 550.773 70.3365 551.12 69.7231H552.64V83.7231H550.96V71.9831C550.587 72.3565 550.187 72.6098 549.76 72.7431C549.333 72.8631 548.78 72.9231 548.1 72.9231ZM555.284 78.1231V76.8831H562.484V78.1231H555.284ZM564.585 82.6231L569.985 77.2031C570.719 76.4698 571.225 75.8365 571.505 75.3031C571.785 74.7698 571.925 74.1831 571.925 73.5431C571.925 72.7431 571.652 72.0965 571.105 71.6031C570.572 71.0965 569.885 70.8431 569.045 70.8431C568.245 70.8431 567.579 71.1031 567.045 71.6231C566.512 72.1431 566.245 72.8165 566.245 73.6431C566.245 73.9498 566.299 74.2498 566.405 74.5431L564.925 74.7831C564.765 74.3698 564.685 73.9298 564.685 73.4631C564.685 72.3965 565.099 71.4631 565.925 70.6631C566.765 69.8498 567.825 69.4431 569.105 69.4431C570.439 69.4431 571.512 69.8098 572.325 70.5431C573.152 71.2631 573.565 72.1898 573.565 73.3231C573.565 74.1765 573.379 74.9765 573.005 75.7231C572.645 76.4698 572.005 77.3031 571.085 78.2231L567.085 82.2431H573.625V83.7231H564.585V82.6231ZM587.912 83.7231H586.312L583.752 76.8031V83.7231H582.192V73.8031H583.912L587.112 82.3631L590.312 73.8031H592.032V83.7231H590.472V76.8031L587.912 83.7231ZM604.143 79.0231H595.943C595.996 80.0898 596.33 80.9698 596.943 81.6631C597.556 82.3431 598.363 82.6831 599.363 82.6831C600.203 82.6831 600.876 82.4898 601.383 82.1031C601.903 81.7031 602.343 81.1431 602.703 80.4231L603.843 81.1031C602.843 83.0365 601.33 84.0031 599.303 84.0031C597.93 84.0031 596.763 83.5098 595.803 82.5231C594.856 81.5231 594.383 80.2698 594.383 78.7631C594.383 77.2431 594.863 75.9898 595.823 75.0031C596.783 74.0165 597.963 73.5231 599.363 73.5231C600.83 73.5231 601.99 73.9831 602.843 74.9031C603.71 75.8231 604.143 77.0165 604.143 78.4831V79.0231ZM599.363 74.8431C598.496 74.8431 597.776 75.1098 597.203 75.6431C596.643 76.1631 596.263 76.8631 596.063 77.7431H602.583C602.53 76.8631 602.183 76.1631 601.543 75.6431C600.916 75.1098 600.19 74.8431 599.363 74.8431ZM614.209 80.4231L615.329 81.1431C614.356 83.0498 612.869 84.0031 610.869 84.0031C609.429 84.0031 608.223 83.5098 607.249 82.5231C606.276 81.5365 605.789 80.2831 605.789 78.7631C605.789 77.2565 606.283 76.0098 607.269 75.0231C608.269 74.0231 609.469 73.5231 610.869 73.5231C611.936 73.5231 612.843 73.7631 613.589 74.2431C614.349 74.7098 614.909 75.3765 615.269 76.2431L614.089 77.0231C613.436 75.6231 612.369 74.9231 610.889 74.9231C609.876 74.9231 609.029 75.2765 608.349 75.9831C607.683 76.6898 607.349 77.6165 607.349 78.7631C607.349 79.9098 607.683 80.8365 608.349 81.5431C609.016 82.2498 609.863 82.6031 610.889 82.6031C611.676 82.6031 612.329 82.4231 612.849 82.0631C613.369 81.6898 613.823 81.1431 614.209 80.4231ZM622.865 83.7231V79.3631H621.085L618.645 83.7231H616.965L619.425 79.3031C618.692 79.1698 618.118 78.8631 617.705 78.3831C617.292 77.8898 617.085 77.2898 617.085 76.5831C617.085 75.7698 617.372 75.1031 617.945 74.5831C618.518 74.0631 619.298 73.8031 620.285 73.8031H624.425V83.7231H622.865ZM622.865 78.0831V75.0831H620.205C619.712 75.0831 619.312 75.2165 619.005 75.4831C618.712 75.7365 618.565 76.1031 618.565 76.5831C618.565 77.0631 618.712 77.4365 619.005 77.7031C619.312 77.9565 619.712 78.0831 620.205 78.0831H622.865ZM628.928 73.8031V82.3631H633.768V73.8031H635.328V82.3631H636.248V85.8431H634.848V83.7231H627.368V73.8031H628.928ZM646.998 83.7231H645.438C645.038 83.2165 644.838 82.5631 644.838 81.7631C644.531 82.4831 644.078 83.0365 643.478 83.4231C642.891 83.8098 642.218 84.0031 641.458 84.0031C640.458 84.0031 639.651 83.7231 639.038 83.1631C638.425 82.5898 638.118 81.8631 638.118 80.9831C638.118 80.0765 638.431 79.3565 639.058 78.8231C639.685 78.2765 640.511 77.9165 641.538 77.7431L644.838 77.2031V76.7631C644.838 75.4831 644.058 74.8431 642.498 74.8431C641.751 74.8431 641.171 74.9898 640.758 75.2831C640.358 75.5765 640.158 75.9431 640.158 76.3831C640.158 76.5165 640.171 76.6165 640.198 76.6831L638.838 77.1431C638.731 76.8631 638.678 76.5965 638.678 76.3431C638.678 75.5698 639.025 74.9098 639.718 74.3631C640.425 73.8031 641.351 73.5231 642.498 73.5231C643.791 73.5231 644.765 73.8098 645.418 74.3831C646.071 74.9431 646.398 75.7365 646.398 76.7631V81.2431C646.398 81.8165 646.438 82.2765 646.518 82.6231C646.598 82.9565 646.758 83.3231 646.998 83.7231ZM641.638 82.6031C642.638 82.6031 643.418 82.2298 643.978 81.4831C644.551 80.7231 644.838 79.8098 644.838 78.7431V78.4431L641.818 78.9631C640.418 79.2031 639.718 79.8498 639.718 80.9031C639.718 81.4231 639.885 81.8365 640.218 82.1431C640.565 82.4498 641.038 82.6031 641.638 82.6031Z" fill="#FAF19D"/>
<line x1="12.3472" y1="13.0513" x2="607.367" y2="13.0513" stroke="#FAF19D" stroke-width="5" stroke-linecap="round"/>
<circle cx="22.8065" cy="12.9594" r="12.9594" fill="#E85A5A"/>
<circle cx="405.108" cy="12.9594" r="12.9594" fill="#FAF19D"/>
<circle cx="596.907" cy="12.9594" r="12.9594" fill="#FAF19D"/>
<circle cx="213.309" cy="12.9594" r="12.9594" fill="#FAF19D"/>
</svg>
