<svg width="52" height="52" viewBox="0 0 52 52" fill="none" xmlns="http://www.w3.org/2000/svg">
<g clip-path="url(#clip0)">
<path d="M33.9781 0H18.0157C3.44922 0 -0.00390625 3.45312 -0.00390625 18.0196V33.982C-0.00390625 48.5485 3.44922 52.0016 18.0157 52.0016H33.9781C48.5446 52.0016 51.9977 48.5485 51.9977 33.982V18.0196C51.9977 3.45312 48.5105 0 33.9781 0ZM41.9763 37.0955H38.2015C36.7715 37.0955 36.3311 35.9613 33.7587 33.3547C31.5243 31.1886 30.5347 30.901 29.9838 30.901C29.2055 30.901 28.9845 31.1204 28.9845 32.188V35.5989C28.9845 36.5137 28.6968 37.063 26.2756 37.063C22.2716 37.063 17.8288 34.6418 14.7137 30.1307C10.0158 23.5203 8.73047 18.5689 8.73047 17.5451C8.73047 16.9942 8.94984 16.4791 10.0077 16.4791H13.7907C14.7478 16.4791 15.1118 16.9195 15.484 17.9432C17.3543 23.3431 20.4695 28.0735 21.7548 28.0735C22.2293 28.0735 22.4487 27.8541 22.4487 26.6435V21.0665C22.3041 18.4941 20.9505 18.2731 20.9505 17.3599C20.9505 16.9195 21.3145 16.4791 21.8978 16.4791H27.847C28.6513 16.4791 28.9471 16.9195 28.9471 17.8669V25.3906C28.9471 26.2031 29.3111 26.4907 29.5305 26.4907C30.005 26.4907 30.4112 26.2031 31.2903 25.3224C34.0073 22.2755 35.9541 17.5776 35.9541 17.5776C36.2076 17.0268 36.648 16.5116 37.6051 16.5116H41.3881C42.5223 16.5116 42.7758 17.095 42.5223 17.9075C42.0478 20.1077 37.4182 26.6419 37.4182 26.6419C37.0201 27.3016 36.8673 27.5892 37.4182 28.3254C37.8245 28.8762 39.1456 30.0186 40.0247 31.0424C41.6416 32.8786 42.8847 34.4191 43.2162 35.4851C43.5883 36.543 43.0391 37.0939 41.9715 37.0939L41.9763 37.0955Z" fill="white"/>
</g>
<defs>
<clipPath id="clip0">
<rect width="52" height="52" fill="white"/>
</clipPath>
</defs>
</svg>
