<svg width="71" height="76" viewBox="0 0 71 76" fill="none" xmlns="http://www.w3.org/2000/svg">
<g clip-path="url(#clip0)">
<path d="M40.2184 25.8393C39.7325 26.4491 39.2585 27.0709 38.7726 27.6807C36.3907 30.6461 33.4163 32.8342 29.9797 34.3767C29.3634 34.6517 29.2568 34.592 29.2212 33.9223C29.2094 33.8267 29.2094 33.7191 29.2094 33.6234C29.0909 32.1407 29.1146 32.1766 30.4063 31.495C33.1556 30.0243 35.3597 27.9796 36.8884 25.2175C36.9595 25.0979 37.0306 24.9784 37.1017 24.8588C37.1728 24.7392 37.2439 24.6316 37.2321 24.4403C36.841 24.8707 36.45 25.3132 36.047 25.7317C34.2339 27.6448 32.2194 29.2949 29.8612 30.4906C29.2212 30.8135 29.1383 30.7656 29.1264 30.0363C29.1264 30.0004 29.1264 29.9526 29.1264 29.9167C28.9487 28.6492 29.3516 27.8122 30.5603 27.1546C32.2549 26.2219 33.6296 24.811 34.7198 23.125C34.5183 23.2804 34.3169 23.4239 34.1273 23.5794C33.914 23.7468 33.7125 23.9381 33.4874 24.1055C32.3616 24.9186 31.2477 25.7197 30.11 26.5089C29.9323 26.6285 29.6834 26.6285 29.4582 26.6763C29.4227 26.4491 29.3397 26.2219 29.3516 26.0067C29.6597 23.2446 30.1574 20.5303 31.6032 18.091C31.935 17.529 32.3497 17.0149 32.7763 16.5246C33.0252 16.2496 33.0371 16.0463 32.8356 15.7474C31.7809 14.1571 31.1647 12.4233 31.0817 10.4982C31.0106 8.71655 31.3306 7.01863 32.3734 5.55985C33.4755 4.02933 33.4992 2.48685 32.8 0.824797C32.7052 0.609568 32.6578 0.382381 32.5867 0.155194C32.6223 0.0954078 32.6697 0.047579 32.7052 -0.012207C33.0726 0.167151 33.4637 0.29868 33.7955 0.525867C34.9568 1.36287 35.9522 2.37923 36.7462 3.58691C37.0425 4.04129 37.3624 4.4837 37.7416 5.00982C37.4691 5.04569 37.3269 5.08156 37.1728 5.08156C34.4354 5.05765 32.326 7.12625 32.2431 9.88836C32.1838 11.8135 32.8119 13.4875 33.9732 14.9702C35.4071 16.7996 37.2558 17.9714 39.4955 18.5334C40.8464 18.8682 42.1737 18.6889 43.4535 18.2106C45.7643 17.3616 47.6959 16.0105 48.8573 13.7505C49.509 12.4831 49.7698 11.108 49.6513 9.69704C49.4379 7.1382 47.6722 5.41636 45.0059 5.08156C44.84 5.05765 44.6741 5.03373 44.4963 4.99786C45.1955 3.32385 48.0396 0.119322 49.5327 -0.000249824C49.4616 0.262809 49.4024 0.501953 49.3194 0.717183C48.8336 2.00856 48.5018 3.3119 49.0706 4.66306C49.2957 5.18918 49.6276 5.66747 49.8764 6.18163C51.3696 9.41007 51.2511 12.5309 49.2957 15.5561C49.1535 15.7833 49.1772 16.2137 49.2839 16.4768C49.7935 17.816 50.0305 19.203 50.0186 20.6259C49.9949 23.5196 49.0113 26.1262 47.4115 28.4938C46.9731 29.1514 46.4872 29.7732 46.0843 30.5026C46.5702 30.2754 47.0797 30.0841 47.5537 29.821C50.3978 28.2785 53.313 26.8437 56.0741 25.1458C58.9419 23.3761 61.0513 20.877 62.1178 17.5888C62.3667 16.8355 62.4733 16.0463 62.6511 15.2691C62.734 14.9104 62.8051 14.5517 62.9711 14.193C63.3977 15.6517 63.137 17.0986 62.6748 18.4497C62.2126 19.8009 61.4779 21.0684 60.9091 22.276C61.2054 22.1445 61.6201 21.9054 62.0823 21.7619C63.4332 21.3195 64.6538 21.5586 65.7203 22.5271C65.8151 22.6108 65.8625 22.9337 65.8151 22.9695C64.5353 23.9022 63.2673 24.8588 61.5609 24.8349C60.6958 24.8229 59.9137 24.6914 59.3093 24.0098C58.6338 24.7273 57.9821 25.4208 57.3184 26.1262C59.0841 25.8154 60.5417 26.3773 61.5135 28.0035C59.807 29.1275 56.6785 29.8449 54.8654 27.8481C53.8581 28.434 52.8627 29.0199 51.8554 29.6178C53.3249 29.5341 54.498 30.0243 55.292 31.3515C53.0879 32.6071 50.4571 32.6429 49.3668 30.9091C48.5373 31.2918 47.6959 31.6744 46.8546 32.069C42.9321 33.9104 38.8082 35.0822 34.5776 35.9909C33.44 36.2301 32.3971 36.9595 31.3069 37.4617C30.821 37.6889 30.3233 37.928 29.7664 38.1911C29.6834 37.7487 29.5768 37.4497 29.5649 37.1388C29.5531 36.7562 29.3634 36.6845 29.0316 36.7084C28.1429 36.7442 27.2541 36.7801 26.3653 36.7682C26.1046 36.7682 25.8557 36.6127 25.595 36.5171C25.8557 36.3736 26.0927 36.1583 26.3653 36.1105C27.3133 35.9312 28.2732 35.7638 29.2331 35.6681C30.3352 35.5605 31.2595 35.0583 32.172 34.4963C34.8739 32.8103 37.2202 30.7417 39.0096 28.0753C39.4836 27.3818 39.8984 26.6524 40.3369 25.9349C40.3013 25.8991 40.2539 25.8632 40.2184 25.8393ZM47.8026 17.2181C47.5893 17.3736 47.4945 17.4453 47.3997 17.5051C46.345 18.1627 45.314 18.8682 44.2238 19.4422C43.7379 19.6933 43.5839 19.9683 43.5839 20.4824C43.572 21.4151 43.5839 22.3717 43.418 23.2804C42.6832 27.3339 40.7042 30.658 37.5876 33.3125C37.4335 33.4441 37.2913 33.5756 37.0899 33.743C37.2439 33.7669 37.2913 33.7789 37.3269 33.7789C37.3861 33.7669 37.4454 33.7549 37.5046 33.743C41.5101 32.6549 44.5556 30.2754 46.6294 26.6643C47.9685 24.3327 48.5729 21.8097 48.1937 19.0954C48.1107 18.4856 47.9448 17.8997 47.8026 17.2181Z" fill="#FAF19D"/>
<path d="M48.8573 47.3861C48.0515 48.1992 47.222 48.9884 46.4517 49.8373C46.0251 50.3036 45.5985 50.1602 45.16 50.0167C44.7215 49.8612 44.4727 49.4906 44.5556 49.0362C44.6741 48.4025 44.8163 47.7448 45.0889 47.1589C45.8829 45.449 46.7479 43.775 47.5775 42.0771C47.6486 41.9216 47.7315 41.7662 47.8382 41.551C47.222 41.9216 46.6413 42.2086 46.1436 42.6032C45.8947 42.8065 45.7762 43.2011 45.6577 43.5239C44.9822 45.4969 44.1646 47.398 42.861 49.0242C42.3278 49.6938 41.6404 50.2797 40.9176 50.7341C39.4955 51.6189 37.9076 50.6982 37.2795 49.5623C37.1729 49.359 37.1847 49.0601 37.2203 48.821C37.2558 48.4742 37.3625 48.1274 37.4336 47.7807C37.3862 47.7448 37.3506 47.7209 37.3032 47.685C37.1136 47.9002 36.9359 48.1274 36.7344 48.3427C35.7745 49.3949 34.7909 50.4352 33.8429 51.4994C33.4045 51.9896 32.9423 51.9179 32.4564 51.7026C31.9469 51.4755 31.7454 51.0091 31.9232 50.5189C32.3261 49.4069 32.7645 48.2948 33.2741 47.2187C33.9496 45.7838 34.708 44.3848 35.4309 42.9619C35.502 42.8184 35.5375 42.651 35.5968 42.5075C35.5494 42.4717 35.502 42.4478 35.4427 42.4119C34.9569 42.9619 34.4354 43.5 33.9733 44.0739C31.9587 46.561 30.2641 49.2275 29.2924 52.3125C29.1383 52.8027 29.0554 53.3169 28.9843 53.831C28.9369 54.2017 28.7591 54.2734 28.4629 54.13C28.1785 53.9984 27.894 53.843 27.6333 53.6756C26.5313 52.9701 26.2231 52.0494 26.9223 50.9733C28.0837 49.1797 29.2805 47.3861 30.6433 45.748C31.9706 44.1576 33.5467 42.7706 34.9924 41.2879C35.3124 40.9531 35.656 40.8814 36.0589 41.0727C36.4144 41.252 36.7818 41.3955 37.1018 41.6227C37.8483 42.1608 38.0498 42.95 37.635 43.775C36.9714 45.1023 36.2722 46.4176 35.6797 47.8166C36.2604 47.1828 36.8055 46.4893 37.4454 45.9154C38.9623 44.5403 39.7444 42.5912 41.119 41.1086C41.6404 40.5466 42.15 39.9487 42.6833 39.3987C43.1336 38.9323 44.6149 38.8247 45.1481 39.2074C45.6577 39.5661 45.0652 39.7574 45.0178 40.0802C45.6459 40.1998 46.3213 40.2955 46.3924 41.3118C46.9968 40.8933 47.5301 40.5466 48.0515 40.1759C48.3359 39.9726 48.5847 39.7096 48.8692 39.4824C49.9001 38.6693 50.7652 38.6693 51.8317 39.4824C52.0687 39.6617 52.3058 39.8291 52.5665 40.0324C52.6257 39.9367 52.6968 39.865 52.7324 39.7933C53.0286 39.0878 53.3249 39.0041 53.9648 39.4226C54.7232 39.9248 54.901 40.8335 54.4625 41.6705C53.0997 44.3011 51.7725 46.9437 50.4216 49.5743C50.3623 49.6938 50.3386 49.8254 50.2793 50.0167C50.469 50.0406 50.623 50.0645 50.7652 50.0645C52.7324 50.0645 54.7114 50.1123 56.6785 50.0406C57.7451 50.0047 58.3494 50.4232 58.6812 51.3918C58.7286 51.5233 58.8116 51.6548 58.8116 51.7863C58.8471 52.2766 58.859 52.7668 58.8827 53.2451C58.4798 53.1495 58.065 53.0777 57.6621 52.9701C55.4105 52.3125 53.0997 52.1451 50.7652 52.0733C49.6157 52.0374 48.9758 52.4081 48.3122 53.3049C47.3049 54.6919 46.0725 55.9116 44.3068 56.2942C42.5292 56.6768 40.8109 56.4736 39.2704 55.3974C38.4409 54.8235 38.2868 53.8071 39.0808 53.1853C39.8629 52.5755 40.7754 52.0614 41.7115 51.7744C43.4061 51.2722 45.16 50.9613 46.902 50.6145C47.3049 50.5308 47.5182 50.3634 47.6841 50.0167C48.087 49.1677 48.5255 48.3188 48.9403 47.4817C48.9166 47.422 48.881 47.41 48.8573 47.3861ZM44.1409 43.3685C43.418 42.9858 43.4061 42.95 43.4654 41.7423C41.6404 43.5478 39.7444 47.41 40.0169 49.0362C42.0197 47.5415 42.9203 45.3653 44.1409 43.3685ZM46.5702 52.1211C44.7452 52.3962 43.1217 52.7668 41.6049 53.5082C40.8702 53.8669 40.5265 54.3332 40.6687 54.7278C40.7991 55.1105 41.4034 55.3137 42.15 55.1463C43.7735 54.7757 45.1363 53.9386 46.2265 52.6712C46.3332 52.5396 46.4161 52.3722 46.5702 52.1211ZM47.2101 47.1828C48.0396 46.3936 48.964 45.449 49.9712 44.5881C50.7534 43.9185 51.1681 43.0217 51.6184 42.1488C51.8317 41.7423 51.5947 41.1803 51.1681 40.9531C50.8245 40.7738 50.5638 40.8694 50.386 41.2042C49.2958 43.2609 48.2055 45.3055 47.2101 47.1828Z" fill="#FAF19D"/>
<path d="M61.0869 62.9906C61.7268 62.4884 62.3904 62.022 63.0066 61.484C64.2983 60.348 65.5544 59.1643 66.8461 58.0283C67.6045 57.3587 68.4815 56.988 69.5125 57.1435C70.4486 57.287 71.1122 58.0642 70.9819 58.9132C70.9582 59.0806 70.7449 59.2958 70.579 59.3556C70.0694 59.523 69.5006 59.5469 69.0147 59.7621C66.5854 60.8502 64.4168 62.3808 62.2245 63.8754C61.5016 64.3657 60.684 64.7842 59.8426 65.0114C58.5983 65.3462 57.9347 64.6048 58.2428 63.3493C58.3494 62.9069 58.5509 62.4884 58.7405 61.9503C58.5627 62.0938 58.4679 62.1536 58.385 62.2373C57.5436 63.1939 56.7022 64.1385 55.8727 65.107C55.3513 65.7049 55.0313 65.8005 54.3796 65.4777C53.8819 65.2266 53.6567 64.7842 53.9056 64.1026C54.2729 63.0504 54.6995 62.022 55.1854 61.0296C55.7661 59.8339 56.4297 58.686 57.0577 57.5142C57.117 57.3946 57.1644 57.2631 57.2592 57.0478C56.5363 57.4903 55.8727 57.849 55.2683 58.2914C55.0906 58.411 55.0313 58.7338 54.9602 58.973C54.2492 61.2448 53.1827 63.3015 51.571 65.0592C51.3222 65.3342 51.0259 65.5853 50.7178 65.8005C49.1299 66.9006 47.7078 66.4103 46.6057 65.0711C46.4161 64.844 46.4872 64.3657 46.4991 64.0069C46.5109 63.7558 46.6413 63.5167 46.7006 63.3134C45.6933 64.2939 44.686 65.2744 43.6787 66.2549C43.4654 66.4582 43.2403 66.6614 43.0625 66.9006C42.6359 67.4506 42.1382 67.3191 41.6286 67.08C41.1072 66.8408 41.0716 66.3625 41.1901 65.9081C41.3442 65.2744 41.5812 64.6646 41.8182 63.9472C41.4746 64.3298 41.1664 64.6646 40.8702 64.9994C40.1236 65.8244 39.377 66.6375 38.6542 67.4865C38.2631 67.9409 37.8246 67.8691 37.3625 67.6778C36.8766 67.4745 36.7463 67.0441 36.8529 66.5897C37.007 65.9201 37.244 65.2744 37.4928 64.4494C36.6633 65.3701 35.9404 66.1712 35.2294 66.9604C34.9213 67.2952 34.6014 67.63 34.3288 67.9887C33.9496 68.4789 33.4874 68.4072 33.0016 68.2159C32.492 68.0246 32.3735 67.5941 32.4801 67.1397C32.6224 66.5299 32.8238 65.9081 33.0964 65.3462C34.0444 63.445 35.0398 61.5557 35.9997 59.6665C36.2012 59.2838 36.3908 58.8773 36.5448 58.4707C36.6752 58.1359 36.8648 58.0642 37.1847 58.1479C38.1683 58.399 38.6423 59.4991 38.1565 60.4078C37.3862 61.8786 36.6159 63.3493 35.9404 64.8918C36.6633 64.0428 37.3743 63.1819 38.1091 62.3449C39.3059 60.9818 40.3725 59.5349 40.965 57.7892C41.0124 57.6577 41.2968 57.5261 41.4627 57.55C42.5411 57.7055 43.0862 58.8175 42.5648 59.81C41.8893 61.1133 41.1901 62.4047 40.5028 63.708C40.408 63.8993 40.3132 64.0906 40.3132 64.3417C40.8583 63.708 41.3797 63.0504 41.9367 62.4405C43.3351 60.91 44.5319 59.236 45.243 57.2511C45.2904 57.1076 45.5629 56.9641 45.717 56.9761C46.7124 57.0718 47.3642 58.2675 46.902 59.1762C46.2147 60.5154 45.5155 61.8546 44.8637 63.2536C44.9704 63.158 45.0771 63.0743 45.1719 62.9786C45.7644 62.3927 46.3095 61.759 46.9376 61.2209C48.0752 60.2524 48.6914 58.8893 49.6276 57.7653C50.3742 56.8685 51.1563 55.9956 51.9621 55.1586C52.5902 54.5129 54.0596 54.5846 54.6758 55.2423C54.5455 55.4097 54.4033 55.5891 54.2255 55.8162C54.901 55.9597 55.695 55.9358 55.5409 57.1435C56.323 56.5695 57.0222 56.1271 57.6266 55.5891C58.1243 55.1466 58.539 55.2303 59.0012 55.5532C59.7833 56.0913 59.9729 56.9043 59.5226 57.7294C58.7879 59.1164 58.0532 60.5035 57.3185 61.8786C57.2829 61.9383 57.2711 62.022 57.3185 62.1416C57.828 61.5318 58.3257 60.91 58.8471 60.3122C60.2336 58.7458 61.5016 57.1076 62.2245 55.0988C62.3786 54.6803 62.6156 54.6086 63.0066 54.7879C64.085 55.2662 64.4168 56.2467 63.8598 57.275C62.9 59.0806 61.9519 60.8861 61.0039 62.7036C60.9684 62.7634 60.9565 62.8351 60.9328 62.9069C61.0039 62.8949 61.0395 62.9427 61.0869 62.9906ZM52.7561 57.4185C50.9193 59.4393 49.675 61.6753 49.2839 64.3657C51.3696 63.1102 52.1754 60.8622 53.5382 58.8892C52.5546 58.7577 52.8035 58.0403 52.7561 57.4185Z" fill="#FAF19D"/>
<path d="M15.6882 38.9084C14.7638 40.0324 13.804 41.1444 12.9152 42.3042C10.0237 46.0827 7.25072 49.9568 4.77399 54.0342C4.38293 54.6799 4.06297 55.3615 3.79042 56.067C3.67191 56.3659 3.62451 56.8801 3.77857 57.0475C3.98002 57.2627 4.44218 57.2268 4.79769 57.2627C4.9399 57.2747 5.09395 57.1551 5.24801 57.1431C5.40206 57.1192 5.56797 57.1551 5.72202 57.1551C5.68647 57.3225 5.68647 57.5138 5.60352 57.6453C5.16506 58.3149 3.05569 59.128 2.32097 58.853C1.49145 58.5541 1.18334 57.7888 1.02928 56.9877C0.898931 56.2583 1.04113 55.5767 1.38479 54.9071C2.97274 51.882 4.9162 49.1198 6.96631 46.4175C9.31268 43.3325 11.7657 40.3552 14.5861 37.7007C15.2734 37.055 16.0792 36.5408 16.8376 35.9908C16.9562 35.8952 17.1221 35.8354 17.2761 35.8234C17.8212 35.7517 18.4848 35.6201 18.793 36.1821C18.9944 36.5528 19.03 37.1865 18.8522 37.5811C17.9516 39.566 16.968 41.515 16.02 43.476C15.8659 43.7869 15.7119 44.0978 15.6645 44.4685C16.5058 43.5358 17.3472 42.5912 18.1886 41.6585C19.2433 40.4748 20.3098 39.303 21.3645 38.1192C21.7081 37.7366 22.0992 37.7724 22.5021 37.9159C22.9643 38.0714 23.2724 38.4062 23.1776 38.9084C23.0472 39.5302 22.8813 40.1519 22.6088 40.7139C21.2104 43.5717 19.7528 46.3936 18.3545 49.2394C17.7738 50.4112 17.2643 51.6308 16.7784 52.8385C16.5769 53.3407 16.2925 53.4005 15.8541 53.2451C14.8586 52.8744 14.4557 51.9537 14.9416 50.9852C16.2925 48.2589 17.6672 45.5566 19.0418 42.8423C19.0892 42.7586 19.1248 42.6749 19.2077 42.651C18.4967 43.3086 17.7501 43.9424 17.0747 44.6359C16.0081 45.7359 14.9653 46.848 13.9699 48.0078C13.4959 48.5578 13.1166 49.1916 12.7848 49.8492C12.1686 51.0689 11.5998 52.3244 11.0428 53.5799C10.8295 54.0582 10.5688 54.106 10.1659 53.8908C9.37193 53.4723 8.73201 52.719 9.38378 51.4754C11.5168 47.398 13.6025 43.2967 15.7119 39.1953C15.7356 39.1475 15.7593 39.0877 15.783 39.0279C15.7593 38.9801 15.7237 38.9442 15.6882 38.9084Z" fill="#FAF19D"/>
<path d="M29.4939 69.6383C30.9871 69.435 32.4091 69.1959 33.8311 69.0404C36.616 68.7415 39.4008 68.4187 42.1975 68.2393C44.9942 68.0599 47.7908 68.0241 50.5994 67.9762C50.9312 67.9762 51.3578 68.1915 51.5948 68.4426C52.2229 69.0883 52.6613 69.8655 52.7917 70.7981C52.8272 71.0253 52.8154 71.2525 52.8272 71.5514C51.974 71.384 51.2156 71.2166 50.4453 71.0971C46.3688 70.4633 42.2686 70.3796 38.1565 70.5351C35.1465 70.6547 32.1365 70.9775 29.1266 71.1927C28.771 71.2166 28.6051 71.396 28.4037 71.683C27.2186 73.4168 25.927 75.0669 23.8176 75.7125C22.123 76.2267 20.4521 76.0234 18.876 75.1984C18.6508 75.0788 18.4375 74.9234 18.2479 74.756C17.5488 74.1222 17.5369 73.345 18.2361 72.6874C19.2434 71.7547 20.4995 71.3123 21.7912 70.9895C23.2251 70.6307 24.6827 70.3677 26.1403 70.1166C26.555 70.0448 26.8039 69.8894 26.9816 69.5068C27.5505 68.311 28.1548 67.1273 28.6999 65.8837C28.5933 65.9794 28.4866 66.0631 28.3918 66.1707C27.5031 67.1871 26.6261 68.2034 25.7374 69.2198C25.3107 69.71 24.8249 69.8296 24.3272 69.5546C23.7939 69.2557 23.6517 68.7295 23.8413 68.2154C24.3153 66.9718 24.8249 65.7402 25.3818 64.5326C26.0692 63.0738 26.8276 61.6628 27.5505 60.216C27.6216 60.0725 27.6808 59.929 27.7282 59.7736C28.0008 58.9605 28.143 58.9007 28.9132 59.3073C29.648 59.6899 29.9561 60.5628 29.5769 61.352C28.9132 62.7031 28.2022 64.0423 27.5149 65.3935C27.432 65.5609 27.349 65.7402 27.3608 65.9913C27.9771 65.238 28.5814 64.4728 29.2332 63.7434C30.5367 62.2966 31.5796 60.7063 32.2195 58.8529C32.338 58.5061 32.5513 58.4583 32.8594 58.554C33.8311 58.8409 34.3407 59.941 33.8785 60.8498C32.4921 63.5999 31.0937 66.3381 29.6954 69.0883C29.648 69.2557 29.5887 69.4111 29.4939 69.6383ZM25.7848 71.8623C25.7611 71.7906 25.7374 71.7188 25.7137 71.6351C24.7538 71.8384 23.782 71.958 22.8577 72.245C21.9689 72.52 21.1039 72.9265 20.2862 73.3809C20.0373 73.5124 19.8359 74.0146 19.8833 74.3136C19.9188 74.5049 20.4047 74.6484 20.701 74.7799C20.8195 74.8277 20.9735 74.7918 21.1039 74.7799C23.071 74.457 24.5286 73.3211 25.7848 71.8623Z" fill="#FAF19D"/>
<path d="M15.0601 70.0809C16.4347 69.6863 17.4894 69.0406 18.39 68.2155C20.4994 66.2546 22.2533 64.0066 23.3672 61.3282C23.5923 60.7901 23.7464 60.1923 23.8175 59.6064C24.0071 57.9921 23.225 56.9758 21.637 56.7964C20.9379 56.7247 20.215 56.7725 19.5277 56.8682C16.0674 57.3225 12.9033 58.59 10.0356 60.6108C9.84595 60.7542 9.57339 61.1488 9.62079 61.1967C9.82225 61.4597 10.0948 61.7108 10.4029 61.8304C10.6873 61.938 11.0428 61.8782 11.3983 61.9021C10.9954 62.6435 9.22973 63.3968 8.53056 63.1218C7.71289 62.7989 7.58253 62.0098 7.45218 61.2684C7.21517 59.9292 7.74844 58.9367 8.89792 58.2791C11.8605 56.5692 14.9179 55.0985 18.3663 54.7039C19.6817 54.5485 21.0564 54.4408 22.3599 54.6202C24.41 54.8952 25.7136 56.6051 25.8676 58.6856C26.0691 61.3162 25.0736 63.5522 23.7701 65.7045C22.5377 67.7253 21.0564 69.5189 19.0537 70.8103C17.4894 71.8147 15.783 72.293 13.9225 71.9701C13.5551 71.8984 13.3062 72.0179 13.0218 72.2332C12.0027 72.9626 10.9243 73.5485 9.60894 73.5724C8.75572 73.5963 8.61351 72.9745 8.38836 72.4364C8.1869 71.9462 8.42391 71.5277 8.82682 71.2527C9.75115 70.607 10.7703 70.1406 11.8961 70.1406C12.5241 70.1287 12.9389 69.9254 13.2351 69.3873C14.0528 67.8688 14.9179 66.3741 15.7119 64.8436C16.8139 62.7391 17.8923 60.6108 18.9589 58.4824C19.1603 58.0758 19.4092 57.9802 19.8121 58.1237C20.8431 58.4824 21.1749 59.3313 20.6416 60.2879C19.0418 63.1696 17.4302 66.0513 15.8304 68.921C15.6171 69.2439 15.3801 69.5906 15.0601 70.0809Z" fill="#FAF19D"/>
<path d="M41.0006 9.64904C41.3798 9.06314 41.7353 8.5131 42.0908 7.96307C43.0033 6.58799 44.4964 5.96622 45.9185 6.37276C47.3168 6.77931 48.3715 8.20222 48.4663 9.76861C48.6085 12.2916 47.6605 14.3004 45.6222 15.7233C44.6742 16.3809 43.6076 16.9071 42.5174 17.3017C40.491 18.031 38.6423 17.4212 36.9359 16.2255C35.4309 15.1733 34.1155 13.9417 33.5941 12.1003C33.1082 10.4023 33.1082 8.71638 34.4236 7.3413C35.9642 5.72708 38.2039 5.8586 39.5785 7.60436C40.0881 8.262 40.5266 8.96748 41.0006 9.64904ZM42.9796 10.0795C42.7663 11.1198 43.1218 11.9448 43.9513 12.3992C44.6268 12.7818 45.5866 12.6383 46.191 12.0644C46.7835 11.5024 46.9968 10.4621 46.6532 9.75665C46.2384 8.90769 45.5155 8.5131 44.5794 8.63268C44.6979 9.15879 44.8401 9.69687 44.3305 10.1034C43.892 10.4741 43.4299 10.4263 42.9796 10.0795ZM35.3717 10.1273C35.1109 11.1556 35.822 12.172 36.6278 12.4829C37.4099 12.7938 38.275 12.5427 38.8557 11.8372C39.3771 11.1915 39.4363 10.2469 38.986 9.55338C38.4764 8.77616 37.801 8.46528 37.0781 8.68051C37.3625 9.90014 36.7344 10.7132 35.3717 10.1273ZM40.7754 16.0461C40.8347 16.0342 40.8939 16.0222 40.9532 16.0103C41.2494 15.4244 41.5457 14.8504 41.8419 14.2645C42.2212 13.4993 42.1737 13.2482 41.5694 12.6264C41.285 12.3275 41.0006 11.9807 40.5147 12.2557C39.9103 12.5905 39.4956 13.2721 39.6852 13.7504C40.0051 14.5395 40.408 15.2809 40.7754 16.0461Z" fill="#FAF19D"/>
<path d="M27.8347 42.4834C28.1546 42.5552 28.3917 42.5791 28.6168 42.6508C29.1145 42.8302 29.3397 43.153 29.1975 43.715C28.4983 46.4293 27.5029 49.0121 25.7609 51.2361C25.0143 52.1807 24.1492 52.9818 22.9168 53.2329C22.0043 53.4243 20.3927 52.5633 20.0727 51.6905C19.9898 51.4633 20.0253 51.1763 20.0727 50.9372C20.6534 47.9239 22.2295 45.4608 24.2203 43.2248C24.5995 42.7943 25.0025 42.3878 25.4054 41.9812C26.0216 41.3594 27.2659 41.1801 28.0361 41.5866C28.2968 41.7301 28.4035 41.8856 28.1428 42.1247C28.048 42.2204 27.965 42.3399 27.8347 42.4834ZM27.6925 42.6747C27.4673 42.8541 27.3488 42.9258 27.2659 43.0215C26.306 44.2531 25.2513 45.4249 24.4455 46.7641C23.7463 47.9359 23.3434 49.299 22.822 50.5784C22.7627 50.7339 22.8457 50.9491 22.8694 51.1285C23.059 51.0926 23.2605 51.1046 23.4145 51.0089C23.6278 50.8774 23.853 50.7219 23.9952 50.5187C24.6706 49.5262 25.3935 48.5457 25.9742 47.4935C26.78 46.0347 27.4318 44.5042 27.6925 42.6747Z" fill="#FAF19D"/>
<path d="M55.4461 47.3743C55.2446 47.7569 54.9602 48.1754 54.7943 48.6298C54.5692 49.2277 54.1307 49.1918 53.6804 49.1081C53.1827 49.0124 52.9101 48.6537 52.9694 48.1635C53.0168 47.6971 53.1234 47.2069 53.3249 46.7884C54.19 44.9589 55.0906 43.1415 55.9675 41.324C56.323 40.5946 56.6667 39.8532 56.9748 39.0999C57.1407 38.6934 57.3658 38.6097 57.7569 38.7292C58.7049 39.0162 59.1552 40.0206 58.7286 40.9174C58.4679 41.4555 58.1954 41.9697 58.0058 42.5914C58.148 42.4838 58.2902 42.3882 58.4205 42.2686C59.0841 41.6707 59.7478 41.0848 60.3877 40.463C60.8498 40.0087 61.3357 40.0445 61.8453 40.3196C62.343 40.5826 62.3904 41.0968 62.2482 41.5153C61.8927 42.5436 61.4542 43.548 61.0039 44.5404C60.5417 45.5568 60.0203 46.5373 59.5463 47.5417C58.9893 48.7613 57.9821 49.132 56.8326 48.4744C56.3704 48.1874 55.9557 47.7809 55.4461 47.3743ZM59.9018 42.5795C59.8781 42.5556 59.8426 42.5316 59.8189 42.5077C58.8234 43.3686 57.828 44.2296 56.8326 45.1024C56.2993 45.5688 56.3112 46.1666 56.8207 46.6569C57.1881 47.0156 57.5199 46.9797 57.7688 46.5253C58.4916 45.2101 59.1908 43.8948 59.9018 42.5795Z" fill="#FAF19D"/>
<path d="M37.6705 2.7856C40.1473 2.17578 42.5766 2.24753 45.1007 2.72582C43.809 4.50744 42.5884 6.1934 41.3797 7.85546C40.1591 6.1934 38.9385 4.53135 37.6705 2.7856Z" fill="#FAF19D"/>
</g>
<defs>
<clipPath id="clip0">
<rect width="70" height="76" fill="white" transform="translate(0.993652)"/>
</clipPath>
</defs>
</svg>
