<svg width="295" height="38" viewBox="0 0 295 38" fill="none" xmlns="http://www.w3.org/2000/svg">
<path d="M0 20.3484C0.178222 20.0567 0.332682 19.73 0.55843 19.4733C1.03369 18.9015 1.43766 18.9599 1.7347 19.625C2.57828 21.5036 3.56445 23.2888 4.99023 24.8056C5.60806 25.4707 6.29719 26.0775 7.29524 26.5092C6.73681 25.4824 6.24967 24.584 5.77441 23.6855C4.56249 21.3402 3.95654 18.8315 4.09912 16.2062C4.3011 12.5774 5.67935 9.34532 7.94872 6.48661C10.432 3.35954 13.6518 1.25927 17.4896 0.0691172C17.7272 -0.000891811 18.1193 -0.0475645 18.25 0.0807854C18.3926 0.232472 18.3926 0.594185 18.3331 0.839217C18.2024 1.38762 17.8935 1.78434 17.3232 2.04104C15.6598 2.76447 13.9726 3.48789 12.6657 4.77139C12.0597 5.3548 11.5607 6.07823 11.0498 6.76665C10.931 6.94167 10.9666 7.22171 10.931 7.45507C11.1567 7.43174 11.4062 7.47841 11.5963 7.38506C12.3568 7.01168 13.0934 6.59163 13.8419 6.19491C16.3371 4.89974 18.951 3.97796 21.7907 3.94295C24.9511 3.90795 27.8146 4.96975 30.4166 6.64997C34.0761 9.01861 36.4643 12.344 37.795 16.4279C38.0208 17.1397 37.8188 17.7814 37.2366 18.2481C36.8207 18.5865 36.5356 18.5282 36.298 18.0614C36.2504 17.9798 36.2148 17.8864 36.1791 17.7931C35.2524 14.876 33.1612 12.8808 30.7374 11.1539C30.678 11.1072 30.6067 11.0839 30.3691 10.9439C30.5354 11.2822 30.6186 11.4689 30.7137 11.6556C31.8899 13.7909 32.9236 15.9962 33.4702 18.3765C34.2306 21.7019 33.7197 24.8523 32.1394 27.851C29.6087 32.6583 25.8422 36.0071 20.4599 37.4656C20.2342 37.524 19.7946 37.5706 19.7589 37.4773C19.6401 37.2439 19.6163 36.9172 19.6876 36.6605C19.8659 36.0538 20.2342 35.622 20.8995 35.412C22.7768 34.8053 24.4046 33.8135 25.7591 32.4016C26.5076 31.6199 26.7928 31.0365 26.9591 29.788C26.7334 29.928 26.5551 30.0213 26.3888 30.138C23.2877 32.2849 19.8302 33.4751 16.0638 33.6851C13.4261 33.8368 10.9904 32.9967 8.70913 31.7599C4.46744 29.4496 1.74658 25.9375 0.261393 21.4335C0.190104 21.2118 0.0831704 21.0135 0 20.7918C0 20.6634 0 20.5118 0 20.3484ZM19.2599 28.5161C23.3234 27.851 26.8284 26.4509 28.872 22.9037C30.8325 19.4966 31.5691 15.9028 29.6324 12.169C29.5136 12.3207 29.4186 12.4841 29.4423 12.6474C29.4899 13.0908 29.6206 13.5225 29.6206 13.9659C29.6324 14.5143 29.6206 15.0861 29.5017 15.6228C29.3948 16.1362 29.1215 16.6146 28.9433 17.1047C28.8007 17.4897 28.6938 17.8864 28.5631 18.2715C28.5037 18.2598 28.4443 18.2598 28.3849 18.2481C27.7076 15.6345 26.8284 13.1141 25.0105 11.0255C23.1214 8.85525 20.6144 7.85179 17.8104 7.50174C14.4479 7.08169 10.9072 8.26018 9.93293 9.31031C10.3013 9.22863 10.527 9.19363 10.7528 9.12362C12.2973 8.62189 13.8657 8.22517 15.5172 8.35352C15.7073 8.36519 15.8974 8.42353 16.0757 8.49354C16.539 8.6919 16.9905 8.91359 17.442 9.12362C17.6915 9.2403 17.9411 9.36865 18.3094 9.55534C12.8558 10.5705 8.62596 12.8458 7.09325 18.3065C6.24967 21.3169 6.62987 24.2689 8.13882 27.0343C8.21011 26.9176 8.22199 26.8126 8.19823 26.7076C7.9606 25.7508 7.61604 24.8056 7.49722 23.8489C7.39029 22.9737 7.42593 22.052 7.62792 21.1885C7.80614 20.3834 8.26952 19.6366 8.62596 18.8665C8.70913 18.6915 8.85171 18.5515 8.95865 18.3882C9.01805 18.3998 9.06558 18.4115 9.12499 18.4232C9.39826 21.1418 9.86164 23.8139 11.4656 26.1358C13.1172 28.5045 15.4222 29.9163 18.2381 30.6281C21.0302 31.3398 23.6679 30.8964 26.4007 29.7646C25.1531 29.893 24.06 30.068 22.9669 30.103C21.8382 30.138 20.7332 29.928 19.6639 29.4963C19.7589 29.3329 19.8302 29.2045 19.9015 29.0645C19.7114 28.9128 19.5569 28.7728 19.2599 28.5161Z" fill="#FAF19D"/>
<path d="M134.463 11.9354C134.356 12.1804 134.237 12.4138 134.13 12.6588C131.754 18.3646 129.377 24.082 127.013 29.7994C126.835 30.2311 126.621 30.3945 126.146 30.3711C125.516 30.3244 124.886 30.3595 124.221 30.3595C124.221 22.2851 124.221 14.2574 124.221 6.20632C125.053 6.20632 125.849 6.20632 126.752 6.20632C126.752 12.3088 126.752 18.3879 126.752 24.4787C126.811 24.4904 126.87 24.502 126.93 24.5137C127.013 24.3503 127.096 24.1987 127.167 24.0353C129.556 18.3062 131.932 12.5771 134.296 6.84807C134.498 6.34634 134.748 6.11298 135.33 6.15965C135.912 6.21799 136.506 6.17132 137.148 6.17132C137.148 14.234 137.148 22.2501 137.148 30.3128C136.34 30.3128 135.544 30.3128 134.665 30.3128C134.665 24.1987 134.665 18.0845 134.665 11.9821C134.593 11.9587 134.522 11.9471 134.463 11.9354Z" fill="#FAF19D"/>
<path d="M106.387 30.3479C106.137 30.3479 105.947 30.3479 105.745 30.3479C105.151 30.3479 104.557 30.3479 103.88 30.3479C103.88 24.1988 103.88 18.0963 103.88 11.9939C103.82 11.9822 103.773 11.9705 103.714 11.9589C103.63 12.1222 103.535 12.2739 103.464 12.4373C101.076 18.1663 98.6876 23.8954 96.3351 29.6362C96.1094 30.1962 95.8242 30.4179 95.2183 30.3596C94.6598 30.3013 94.0776 30.3479 93.4717 30.3479C93.4717 22.2735 93.4717 14.2575 93.4717 6.1948C94.3034 6.1948 95.0994 6.1948 95.9906 6.1948C95.9906 12.3206 95.9906 18.4347 95.9906 24.5372C96.05 24.5488 96.0975 24.5605 96.1569 24.5722C96.2401 24.3972 96.3351 24.2221 96.4064 24.0354C98.8065 18.2714 101.218 12.5073 103.595 6.73153C103.785 6.27648 104.022 6.11312 104.51 6.14813C105.116 6.18313 105.733 6.15979 106.387 6.15979C106.387 14.2225 106.387 22.2385 106.387 30.3479Z" fill="#FAF19D"/>
<path d="M150.467 17.63C150.61 17.7117 150.681 17.77 150.776 17.805C152.796 18.4351 153.746 19.917 154.043 21.8539C154.305 23.5224 154.21 25.1793 153.735 26.8129C153.152 28.7965 151.703 30.1033 149.624 30.22C147.045 30.36 144.443 30.3133 141.853 30.3367C141.817 30.3367 141.782 30.3017 141.711 30.2666C141.711 22.2623 141.711 14.2462 141.711 6.16016C142.008 6.16016 142.281 6.16016 142.554 6.16016C144.526 6.19516 146.511 6.13682 148.483 6.27684C150.954 6.45186 152.535 7.85204 153.069 10.2207C153.39 11.6559 153.378 13.1144 153.057 14.5496C152.701 16.0665 152.202 16.6382 150.467 17.63ZM144.372 23.4174C144.372 24.7359 144.384 26.0544 144.372 27.3846C144.372 27.793 144.503 27.9797 144.954 27.968C146.023 27.9447 147.093 27.9797 148.162 27.9563C149.909 27.9097 150.907 27.2329 151.192 25.5994C151.406 24.3509 151.477 23.0324 151.311 21.7955C151.014 19.6253 150.028 18.9252 147.818 18.9252C146.926 18.9252 146.035 18.9252 145.144 18.9252C144.384 18.9252 144.384 18.9252 144.384 19.7069C144.372 20.9321 144.372 22.1806 144.372 23.4174ZM144.372 12.6127C144.372 13.8028 144.384 14.9813 144.372 16.1715C144.372 16.5565 144.503 16.7432 144.919 16.7315C145.833 16.7082 146.736 16.7549 147.651 16.7199C149.172 16.6499 150.051 16.0431 150.42 14.7713C150.824 13.3594 150.835 11.9359 150.455 10.5124C150.146 9.38058 149.279 8.70382 148.079 8.64548C147.057 8.59881 146.023 8.61048 145.002 8.5638C144.55 8.54047 144.372 8.70382 144.372 9.17055C144.384 10.3257 144.372 11.4692 144.372 12.6127Z" fill="#FAF19D"/>
<path d="M214.425 6.10205C216.849 6.16039 219.225 6.10205 221.578 6.32375C223.835 6.53377 225.332 8.06231 225.796 10.3143C226.081 11.7144 226.069 13.1263 225.76 14.5381C225.463 15.8917 224.738 16.9185 223.408 17.4785C223.336 17.5019 223.277 17.5602 223.182 17.6302C223.289 17.7002 223.36 17.7702 223.455 17.7936C225.499 18.4237 226.461 19.9288 226.746 21.8891C226.972 23.4876 226.913 25.0979 226.485 26.6731C225.938 28.715 224.572 30.0102 222.457 30.1852C219.807 30.4069 217.134 30.3485 214.425 30.4185C214.425 22.2742 214.425 14.2698 214.425 6.10205ZM217.17 18.9487C217.134 19.0887 217.099 19.1938 217.099 19.3104C217.099 22.0291 217.099 24.7478 217.087 27.4665C217.087 27.8399 217.253 27.9682 217.633 27.9682C218.726 27.9566 219.807 27.9916 220.901 27.9566C222.493 27.9099 223.396 27.3148 223.8 26.0196C224.322 24.3511 224.299 22.6475 223.859 20.9673C223.562 19.8355 222.766 19.0654 221.566 18.9837C220.105 18.867 218.643 18.9487 217.17 18.9487ZM217.087 12.6129C217.087 13.8031 217.099 14.9815 217.087 16.1717C217.087 16.5567 217.205 16.7434 217.633 16.7318C218.548 16.7084 219.451 16.7551 220.366 16.7201C221.661 16.6734 222.683 16.1834 223.087 14.8882C223.55 13.4297 223.562 11.9361 223.146 10.4776C222.825 9.36914 221.982 8.72739 220.806 8.66905C219.796 8.62238 218.786 8.63405 217.788 8.58737C217.277 8.56404 217.087 8.72739 217.099 9.25246C217.11 10.3609 217.087 11.4811 217.087 12.6129Z" fill="#FAF19D"/>
<path d="M189.652 28.435C191.185 28.61 191.732 27.7232 192.088 26.5564C192.587 24.8645 193.157 23.1843 193.656 21.4924C193.953 20.4889 194.334 19.5438 195.296 18.9137C195.189 18.8437 195.142 18.7854 195.07 18.762C193.074 18.2253 192.064 16.8484 191.732 14.9349C191.446 13.2897 191.435 11.6444 191.85 10.0226C192.397 7.86395 193.835 6.53377 196.057 6.32375C198.409 6.10205 200.785 6.17206 203.197 6.10205C203.197 14.2231 203.197 22.2391 203.197 30.3019C202.318 30.3019 201.439 30.3019 200.488 30.3019C200.476 30.0802 200.453 29.8585 200.453 29.6251C200.453 26.5097 200.441 23.406 200.465 20.2906C200.465 19.6955 200.298 19.5205 199.692 19.5205C197.28 19.5205 197.078 19.6488 196.354 21.9241C195.748 23.8144 195.165 25.7046 194.548 27.5832C194.084 28.995 193.264 30.0918 191.672 30.3835C191.149 30.4769 190.603 30.4652 190.08 30.4302C189.926 30.4185 189.664 30.1735 189.652 30.0218C189.617 29.5318 189.652 29.03 189.652 28.435ZM200.465 13.0563C200.465 11.7378 200.453 10.4076 200.465 9.08911C200.465 8.69239 200.334 8.52903 199.918 8.5407C199.122 8.56404 198.338 8.51736 197.542 8.55237C195.807 8.62238 194.94 9.32247 194.559 10.991C194.251 12.3329 194.262 13.6864 194.571 15.0282C194.952 16.6968 195.878 17.4202 197.625 17.4552C198.373 17.4785 199.134 17.4435 199.882 17.4669C200.322 17.4785 200.476 17.3268 200.465 16.8951C200.453 15.6233 200.465 14.3398 200.465 13.0563Z" fill="#FAF19D"/>
<path d="M75.0551 18.2713C75.0551 20.1382 75.1145 22.0051 75.0314 23.872C74.9838 24.8521 74.8175 25.8439 74.5086 26.7774C73.7957 28.9593 72.1798 30.1845 69.9104 30.5695C68.6866 30.7796 67.4628 30.7329 66.2747 30.4062C63.8033 29.7294 62.1637 27.7108 61.9498 25.0738C61.8785 24.1637 61.831 23.2536 61.831 22.3435C61.8191 19.1114 61.7835 15.891 61.8548 12.6706C61.8785 11.6554 62.1043 10.6286 62.4132 9.66017C63.031 7.75826 64.4093 6.57978 66.3697 6.07805C67.7718 5.728 69.1857 5.728 70.5877 6.10138C73.0115 6.74313 74.3185 8.38834 74.8056 10.722C74.972 11.5154 75.0314 12.3322 75.0432 13.149C75.0789 14.8525 75.0551 16.5677 75.0551 18.2713ZM72.2867 18.2479C72.2749 18.2479 72.2749 18.2479 72.2867 18.2479C72.2749 16.241 72.3105 14.2458 72.2749 12.2388C72.2273 9.84687 71.0273 8.47002 68.8411 8.23666C66.7856 8.01496 65.3123 9.00676 64.8489 10.9787C64.6945 11.6554 64.6113 12.3555 64.6113 13.0556C64.5875 16.4744 64.5994 19.9048 64.6113 23.3236C64.6113 23.9187 64.6588 24.5254 64.742 25.1205C65.0034 26.9641 65.942 28.0025 67.7124 28.2592C69.756 28.5509 71.5738 27.8508 72.0848 25.5172C72.2036 24.9688 72.2749 24.4087 72.2867 23.8487C72.2986 21.9818 72.2867 20.1149 72.2867 18.2479Z" fill="#FAF19D"/>
<path d="M263.971 6.16052C264.755 6.16052 265.504 6.17219 266.252 6.16052C266.656 6.14886 266.632 6.41722 266.632 6.67392C266.632 8.10911 266.632 9.55597 266.632 10.9912C266.632 12.683 266.644 14.3749 266.632 16.0668C266.632 16.4985 266.739 16.6852 267.226 16.6736C269.246 16.6502 271.266 16.6502 273.286 16.6736C273.809 16.6852 273.904 16.4752 273.904 16.0201C273.892 12.9864 273.892 9.95269 273.892 6.91896C273.892 6.68559 273.892 6.4639 273.892 6.19553C274.843 6.19553 275.722 6.19553 276.637 6.19553C276.637 14.2349 276.637 22.251 276.637 30.302C275.734 30.302 274.854 30.302 273.892 30.302C273.892 30.0453 273.892 29.8236 273.892 29.5903C273.892 26.3465 273.88 23.0911 273.904 19.8473C273.904 19.2989 273.773 19.1122 273.191 19.1239C271.231 19.1589 269.27 19.1356 267.31 19.1356C267.12 19.1356 266.929 19.1356 266.68 19.1356C266.656 19.4739 266.632 19.7423 266.632 19.999C266.632 23.2078 266.621 26.4165 266.644 29.6253C266.644 30.1853 266.502 30.3954 265.92 30.3487C265.29 30.302 264.66 30.337 263.971 30.337C263.971 22.286 263.971 14.2699 263.971 6.16052Z" fill="#FAF19D"/>
<path d="M229.824 18.248C229.824 16.0894 229.717 13.9308 229.847 11.7839C230.026 8.98352 231.499 6.55654 234.707 5.99647C237.095 5.58808 239.376 5.80977 241.182 7.64168C242.394 8.85517 242.881 10.4187 242.905 12.0522C242.965 16.1945 243.012 20.3367 242.893 24.4672C242.822 26.8592 241.919 28.9944 239.495 30.0562C237.357 30.9897 235.135 30.978 233.02 29.9629C230.845 28.9128 229.966 26.9642 229.836 24.7239C229.729 22.5653 229.824 20.4067 229.824 18.248ZM232.604 18.2831C232.604 20.4183 232.556 22.5536 232.616 24.6889C232.675 26.7308 233.768 27.991 235.681 28.2593C237.891 28.5627 239.578 27.7109 240.042 25.354C240.149 24.8406 240.232 24.3155 240.232 23.8021C240.22 19.7999 240.315 15.7861 240.125 11.7955C239.97 8.69181 237.677 7.8167 235.147 8.38844C233.626 8.73849 232.675 10.0453 232.628 11.8656C232.556 14.0125 232.604 16.1478 232.604 18.2831Z" fill="#FAF19D"/>
<path d="M160.448 16.6616C161.767 16.6616 163.014 16.6616 164.262 16.6616C165.189 16.6616 166.127 16.6383 167.054 16.6733C167.565 16.6967 167.684 16.51 167.684 16.0432C167.672 13.0095 167.672 9.97578 167.672 6.94205C167.672 6.70869 167.672 6.48699 167.672 6.16028C168.515 6.16028 169.299 6.14862 170.072 6.17195C170.179 6.17195 170.333 6.33531 170.357 6.44032C170.404 6.62701 170.381 6.82537 170.381 7.02373C170.381 14.503 170.381 21.994 170.381 29.4733C170.381 30.5235 170.369 30.3251 169.478 30.3368C168.907 30.3484 168.337 30.3368 167.707 30.3368C167.695 30.0684 167.672 29.835 167.672 29.6133C167.672 26.3462 167.66 23.0791 167.684 19.8121C167.684 19.287 167.553 19.112 166.994 19.1236C165.034 19.1586 163.074 19.1353 161.113 19.1353C160.923 19.1353 160.721 19.1353 160.472 19.1353C160.448 19.4503 160.412 19.7187 160.412 19.9754C160.412 23.1842 160.4 26.3929 160.424 29.6017C160.424 30.1734 160.293 30.4184 159.664 30.3484C159.153 30.2901 158.63 30.3251 158.119 30.3368C157.786 30.3484 157.644 30.2317 157.656 29.905C157.668 29.765 157.656 29.6367 157.656 29.4967C157.656 21.994 157.656 14.4914 157.656 6.98873C157.656 6.14862 157.656 6.14862 158.535 6.14862C158.986 6.14862 159.45 6.17195 159.901 6.13695C160.305 6.11361 160.436 6.27697 160.412 6.65035C160.4 6.80203 160.412 6.96539 160.412 7.11708C160.412 9.99912 160.412 12.8695 160.412 15.7515C160.412 16.0316 160.436 16.2999 160.448 16.6616Z" fill="#FAF19D"/>
<path d="M57.9222 6.16016C57.9222 14.2579 57.9222 22.2622 57.9222 30.3483C57.1024 30.3483 56.3182 30.36 55.5341 30.3366C55.439 30.3366 55.2845 30.1733 55.2608 30.0566C55.2133 29.8699 55.237 29.6715 55.237 29.4732C55.237 22.799 55.237 16.1364 55.237 9.46225C55.237 8.55213 55.237 8.55213 54.2865 8.55213C52.528 8.55213 50.7577 8.57547 48.9992 8.54046C48.3814 8.5288 48.2269 8.73882 48.2269 9.31056C48.2388 15.9848 48.2388 22.6473 48.2388 29.3215C48.2388 29.4965 48.2269 29.6715 48.2388 29.8466C48.2745 30.2549 48.0962 30.395 47.6923 30.3716C47.122 30.3366 46.5398 30.3483 45.9695 30.3716C45.6011 30.3833 45.4704 30.2316 45.4942 29.8932C45.5061 29.7766 45.4942 29.6599 45.4942 29.5432C45.4942 22.0172 45.4942 14.4912 45.4942 6.97693C45.4942 6.18349 45.4942 6.18349 46.2903 6.18349C49.9379 6.18349 53.5736 6.18349 57.2212 6.18349C57.4351 6.16016 57.649 6.16016 57.9222 6.16016Z" fill="#FAF19D"/>
<path d="M248.87 6.19413C249.072 6.18247 249.238 6.15913 249.416 6.15913C252.529 6.15913 255.63 6.1708 258.743 6.14746C259.23 6.14746 259.397 6.27581 259.385 6.76587C259.373 14.4319 259.373 22.0862 259.385 29.7522C259.385 30.1839 259.29 30.3939 258.791 30.3589C258.256 30.3123 257.722 30.3239 257.187 30.3589C256.723 30.3939 256.581 30.1956 256.628 29.7872C256.64 29.6122 256.628 29.4371 256.628 29.2621C256.628 22.6696 256.628 16.0771 256.628 9.48456C256.628 8.55111 256.628 8.55111 255.702 8.55111C254.43 8.55111 253.171 8.56277 251.9 8.53944C251.46 8.52777 251.306 8.69112 251.294 9.11118C251.258 10.6981 251.222 12.2966 251.127 13.8835C250.949 17.2789 250.806 20.6743 250.498 24.0581C250.367 25.47 249.951 26.8818 249.44 28.212C248.727 30.0556 247.29 30.744 245.317 30.4639C244.961 30.4173 244.747 30.2773 244.783 29.8689C244.818 29.4255 244.794 28.9821 244.794 28.5737C244.889 28.5154 244.913 28.4804 244.949 28.4804C246.529 28.3287 247.04 27.9903 247.408 26.4618C247.741 25.0499 248.014 23.6031 248.109 22.1679C248.347 18.4807 248.454 14.7936 248.62 11.1064C248.692 9.63625 248.763 8.15439 248.834 6.6842C248.834 6.52084 248.858 6.38082 248.87 6.19413Z" fill="#FAF19D"/>
<path d="M173.101 30.3478C173.327 29.4143 173.541 28.5742 173.755 27.7341C175.561 20.7332 177.379 13.7323 179.161 6.7197C179.28 6.26464 179.47 6.12462 179.921 6.14796C180.61 6.18296 181.311 6.18296 182.001 6.14796C182.452 6.12462 182.607 6.28797 182.713 6.69636C183.581 10.1618 184.484 13.6156 185.375 17.0694C186.48 21.3749 187.585 25.6688 188.69 29.9744C188.714 30.0677 188.726 30.1611 188.761 30.3478C187.87 30.3478 187.026 30.3711 186.195 30.3244C186.076 30.3244 185.91 30.0327 185.862 29.8577C185.446 28.1425 185.03 26.4273 184.662 24.7004C184.555 24.187 184.341 24.0236 183.795 24.0353C181.834 24.0703 179.874 24.0586 177.913 24.0353C177.498 24.0353 177.319 24.1636 177.236 24.5603C176.844 26.2989 176.416 28.0375 176.048 29.776C175.953 30.2194 175.775 30.3828 175.311 30.3594C174.61 30.3128 173.897 30.3478 173.101 30.3478ZM177.878 21.8417C179.969 21.8417 181.929 21.8417 183.985 21.8417C182.987 17.5594 182.012 13.3472 181.038 9.14668C180.979 9.14668 180.919 9.15835 180.86 9.15835C179.862 13.3589 178.876 17.5711 177.878 21.8417Z" fill="#FAF19D"/>
<path d="M294.994 30.3481C294.114 30.3481 293.295 30.3715 292.499 30.3248C292.344 30.3131 292.142 30.0214 292.095 29.8231C291.679 28.1078 291.275 26.3926 290.895 24.6657C290.799 24.2223 290.645 24.024 290.122 24.0356C288.138 24.0706 286.166 24.0706 284.181 24.0356C283.73 24.024 283.564 24.199 283.48 24.5957C283.088 26.3226 282.661 28.0262 282.292 29.753C282.185 30.2314 281.995 30.3831 281.508 30.3598C280.819 30.3131 280.13 30.3481 279.37 30.3481C279.429 30.0564 279.453 29.8347 279.5 29.613C281.473 21.9704 283.445 14.3277 285.405 6.68505C285.5 6.28833 285.643 6.13665 286.071 6.14832C286.807 6.18332 287.532 6.17165 288.269 6.14832C288.649 6.13665 288.827 6.24166 288.922 6.62671C290.134 11.399 291.37 16.1713 292.594 20.9436C293.366 23.954 294.138 26.9527 294.91 29.9631C294.946 30.0447 294.958 30.1381 294.994 30.3481ZM287.259 9.15871C287.199 9.15871 287.128 9.15871 287.069 9.15871C286.083 13.3709 285.096 17.5715 284.098 21.8537C286.178 21.8537 288.138 21.8537 290.205 21.8537C289.219 17.5715 288.245 13.3709 287.259 9.15871Z" fill="#FAF19D"/>
<path d="M86.8773 17.7351C86.9961 17.8167 87.0555 17.8751 87.1268 17.8984C89.1586 18.5635 89.8952 20.092 89.9071 22.0406C89.919 23.4408 89.9665 24.8526 89.7883 26.2295C89.4794 28.6331 87.5308 30.325 85.0832 30.6051C83.3485 30.8034 81.6732 30.6751 80.2237 29.6133C78.7623 28.5515 78.1088 27.0113 77.6811 25.296C78.287 25.0977 78.8454 24.8993 79.4158 24.771C79.5346 24.7476 79.796 24.9693 79.8554 25.121C80.188 26.0428 80.5445 26.9529 81.3168 27.618C82.5168 28.6565 83.8832 28.7265 85.309 28.2248C86.604 27.758 87.1149 26.7196 87.1625 25.4361C87.1981 24.2109 87.21 22.9857 87.1625 21.7723C87.1031 20.2671 86.2476 19.3686 84.7149 19.1702C83.8594 19.0652 82.9802 19.0769 82.1128 19.0419C81.994 19.0419 81.8871 19.0186 81.697 18.9952C81.697 18.3418 81.6732 17.7001 81.7208 17.07C81.7326 16.9533 81.9822 16.7666 82.1366 16.7549C82.7307 16.6966 83.3248 16.7433 83.907 16.6733C85.7961 16.4749 86.6991 15.6231 86.8417 13.7912C86.9248 12.8228 86.8654 11.8543 86.8179 10.8858C86.7347 9.56734 86.0694 8.63388 84.7624 8.2605C83.3248 7.85211 81.9822 8.06214 81.0079 9.27563C80.5683 9.82404 80.3187 10.5241 79.9861 11.1659C79.9148 11.3059 79.8791 11.4459 79.796 11.6559C79.1068 11.4342 78.4415 11.2125 77.7524 10.9792C78.4771 8.47053 79.796 6.58028 82.4693 6.02021C84.5604 5.58849 86.5328 5.86852 88.1368 7.43206C89.0873 8.35385 89.5031 9.53233 89.5744 10.7925C89.6338 11.9476 89.5982 13.1261 89.4912 14.2813C89.3605 15.7748 88.5645 16.895 87.1744 17.5834C87.0555 17.595 86.9961 17.6417 86.8773 17.7351Z" fill="#FAF19D"/>
<path d="M109.131 8.64514C109.131 7.78169 109.131 7.0116 109.131 6.19482C113.242 6.19482 117.318 6.19482 121.452 6.19482C121.452 6.97659 121.452 7.75836 121.452 8.64514C120.93 8.64514 120.407 8.64514 119.872 8.64514C118.981 8.64514 118.09 8.65681 117.199 8.63347C116.807 8.6218 116.652 8.76182 116.676 9.1352C116.688 9.33356 116.676 9.52025 116.676 9.71861C116.676 16.3228 116.676 22.9386 116.676 29.5428C116.676 30.3363 116.676 30.3363 115.868 30.3363C115.357 30.3363 114.834 30.3596 114.323 30.3129C114.181 30.3012 114.003 30.1029 113.943 29.9512C113.872 29.7762 113.919 29.5662 113.919 29.3795C113.919 22.7519 113.919 16.1244 113.919 9.49691C113.919 8.64514 113.919 8.64514 113.04 8.64514C111.781 8.64514 110.486 8.64514 109.131 8.64514Z" fill="#FAF19D"/>
<path d="M17.9412 26.9411C14.3887 26.9877 10.5272 23.4173 11.2757 19.2167C11.6559 17.1048 12.5114 15.2962 14.2104 13.9194C18.3452 10.5706 23.9651 12.3441 25.379 17.4081C26.484 21.352 23.6681 25.8326 19.5215 26.7194C19.0106 26.836 18.4759 26.871 17.9412 26.9411ZM18.3452 14.3627C18.3333 14.3161 18.3214 14.2577 18.2977 14.2111C17.359 14.4678 16.361 14.6078 15.4818 14.9928C13.4619 15.8563 12.654 17.5482 12.8441 19.205C13.153 21.9237 14.8758 23.8723 17.5848 24.5257C22.3968 25.6926 24.5592 21.9587 23.9057 19.0184C23.276 16.2063 21.0898 14.3627 18.3452 14.3627Z" fill="#FAF19D"/>
<path d="M18.0953 23.8605C15.9566 23.8255 14.1506 21.9936 14.1863 19.905C14.2338 17.2913 16.3249 15.2027 18.8676 15.2377C20.935 15.2611 22.7172 17.198 22.6815 19.3683C22.6221 21.8653 20.5547 23.8955 18.0953 23.8605Z" fill="#FAF19D"/>
</svg>
