<svg width="77" height="76" viewBox="0 0 77 76" fill="none" xmlns="http://www.w3.org/2000/svg">
<g clip-path="url(#clip0)">
<path d="M76.9934 41.6784C76.8006 42.8056 76.6078 43.9329 76.4002 45.0601C75.2581 51.2155 72.7218 56.733 68.8209 61.598C63.3775 68.3763 56.4361 72.8408 47.9966 74.9618C43.7546 76.0297 39.4532 76.2225 35.1371 75.7924C25.5555 74.8431 17.5165 70.7049 11.0051 63.6745C5.88805 58.1569 2.65464 51.6308 1.51256 44.185C-0.16347 33.2834 2.25417 23.3607 9.0473 14.6393C14.906 7.08977 22.5891 2.41764 31.9778 0.593287C33.1792 0.355972 34.3955 0.192818 35.5969 0C37.8662 0 40.1503 0 42.4197 0C43.6507 0.192818 44.8966 0.385636 46.1277 0.593287C48.6492 1.03825 51.0965 1.77986 53.4696 2.77361C54.6562 3.26308 55.1753 4.39032 54.7304 5.45824C54.2706 6.55582 53.1582 7.01561 51.9716 6.52615C49.02 5.30991 45.9497 4.50898 42.7756 4.18267C37.2729 3.60422 31.874 4.18267 26.7421 6.28884C15.6773 10.8423 8.49851 18.9407 5.87322 30.6284C3.44075 41.4559 5.94738 51.3193 13.0817 59.8774C18.3322 66.1811 25.0809 70.0968 33.1496 71.4465C43.4579 73.1671 52.7725 70.7049 60.8412 64.0008C67.1597 58.7502 71.0457 51.9867 72.4993 43.9032C73.7155 37.1101 72.8849 30.5098 70.0965 24.1764C69.5477 22.9305 69.963 21.7291 71.0902 21.2693C72.2027 20.8095 73.2706 21.3435 73.8194 22.5894C75.4212 26.2678 76.504 30.0796 76.8451 34.0991C76.86 34.2178 76.9341 34.3216 76.9786 34.4403C76.9934 36.8283 76.9934 39.2607 76.9934 41.6784Z" fill="#FAF19D"/>
<path d="M64.1045 21.195C59.3137 21.2098 55.3684 17.2941 55.3536 12.533C55.3387 7.74222 59.2248 3.84136 64.0304 3.81169C68.8063 3.78203 72.7665 7.69772 72.7814 12.4737C72.7962 17.22 68.8657 21.195 64.1045 21.195Z" fill="#FAF19D"/>
<path d="M31.0732 37.9706C31.0732 35.2711 31.088 32.5865 31.0583 29.887C31.0435 29.2789 31.2363 29.1454 31.8 29.1603C34.4252 29.2048 37.0357 29.1603 39.661 29.2196C42.4198 29.2789 44.3331 31.1033 44.5853 33.8324C44.6298 34.3515 44.5556 34.8706 44.3628 35.3601C44.2293 35.7012 44.2293 35.9089 44.6594 36.0127C47.7445 36.7988 49.0349 39.1275 48.6345 42.1532C48.2933 44.7637 45.846 46.7215 42.9241 46.7512C39.1715 46.7809 35.4042 46.7512 31.6516 46.7809C31.1028 46.7809 31.0583 46.5584 31.0583 46.1283C31.088 43.414 31.0732 40.6848 31.0732 37.9706Z" fill="#FAF19D"/>
<path d="M61.7313 46.7213C59.6251 46.7213 57.5189 46.6323 55.4276 46.751C52.9061 46.8993 50.0732 44.9563 50.0435 41.5004C50.0139 37.5699 50.0435 33.6393 50.0287 29.7088C50.0287 29.2787 50.1473 29.16 50.5775 29.16C51.8085 29.1897 53.0544 29.1897 54.2855 29.16C54.8195 29.1452 54.8788 29.3677 54.8788 29.8126C54.864 33.6245 54.864 37.4215 54.864 41.2334C54.864 42.3755 54.9233 42.42 56.095 42.42C57.8452 42.42 59.6103 42.3755 61.3605 42.4348C62.0724 42.4645 62.1762 42.2123 62.1762 41.5745C62.1466 37.6737 62.1762 33.7728 62.1466 29.8571C62.1466 29.338 62.2356 29.1155 62.814 29.1452C63.9709 29.2045 65.1427 29.1897 66.2996 29.1452C66.8632 29.1304 66.9967 29.2787 66.9967 29.8423C66.967 33.8025 66.9967 37.7478 66.967 41.708C66.967 42.3161 67.145 42.4348 67.7086 42.42C69.3995 42.3903 69.3995 42.42 69.3995 44.1405C69.3995 44.808 69.3698 45.4754 69.4143 46.1428C69.444 46.6026 69.2957 46.7213 68.8359 46.7213C66.4776 46.7065 64.1044 46.7213 61.7313 46.7213Z" fill="#FAF19D"/>
<path d="M29.9016 46.7657C28.3442 46.7657 26.8758 46.7509 25.3926 46.7657C25.0811 46.7657 24.9625 46.6322 24.8586 46.3801C24.6658 45.9055 24.3988 45.4457 24.2654 44.9562C24.1022 44.2887 23.7166 44.1701 23.0936 44.1849C20.4683 44.2146 17.8579 44.2146 15.2326 44.1849C14.7876 44.1849 14.58 44.3184 14.4316 44.7337C14.1943 45.4012 14.0608 46.2614 13.5714 46.6471C13.0374 47.0475 12.1475 46.7509 11.4059 46.7657C10.5159 46.7805 9.62602 46.7657 8.63226 46.7657C9.25521 45.2825 9.83367 43.8734 10.427 42.4644C11.8657 39.053 13.2747 35.6268 14.7579 32.2302C15.6182 30.2724 17.1756 29.2044 19.3263 29.1896C21.4473 29.1748 23.0491 30.1834 23.8797 32.1264C25.9117 36.8875 27.8399 41.6783 29.8126 46.4542C29.8423 46.5284 29.8571 46.6026 29.9016 46.7657Z" fill="#FAF19D"/>
<path d="M39.6166 42.4198C38.5487 42.4198 37.4956 42.405 36.4277 42.4347C36.0272 42.4495 35.8344 42.3605 35.8789 41.9155C35.9382 41.2629 35.6119 40.4175 36.0124 39.9874C36.3832 39.6017 37.2286 39.8835 37.8664 39.8835C39.3644 39.8687 40.8773 39.928 42.3754 39.8687C43.5471 39.8242 44.0366 40.5065 44.0069 41.2184C43.9772 41.9452 43.5471 42.5088 42.4199 42.4347C41.4854 42.3902 40.551 42.4198 39.6166 42.4198Z" fill="#03195A"/>
<path d="M37.629 33.5061C38.0295 33.5061 38.4151 33.5061 38.8156 33.5061C39.4386 33.5209 39.8984 33.9659 39.9132 34.5592C39.928 35.1376 39.4682 35.6419 38.8601 35.6568C38.0147 35.6716 37.1841 35.6419 36.3386 35.6716C35.9678 35.6864 35.864 35.5381 35.8937 35.197C35.9233 34.8262 35.9233 34.4554 35.8937 34.0845C35.8492 33.6544 35.9678 33.4468 36.4425 33.4913C36.8281 33.5358 37.2286 33.5061 37.629 33.5061Z" fill="#03195A"/>
<path d="M22.1293 40.0175C20.1863 40.0175 18.3175 40.0175 16.3745 40.0175C17.0864 38.2525 17.7687 36.5171 18.4658 34.7966C18.5993 34.4851 18.7179 34.1588 18.8514 33.8473C18.9404 33.6248 19.0591 33.4617 19.3409 33.4765C19.5634 33.4914 19.682 33.61 19.771 33.8177C20.5423 35.8793 21.3284 37.9262 22.1293 40.0175Z" fill="#03195A"/>
</g>
<defs>
<clipPath id="clip0">
<rect width="76" height="76" fill="white" transform="translate(0.993652)"/>
</clipPath>
</defs>
</svg>
