<svg width="457" height="256" viewBox="0 0 457 256" fill="none" xmlns="http://www.w3.org/2000/svg">
<path d="M422.25 239.402C461.047 227.612 503.743 208.267 550.339 181.365C515.9 197.269 486.54 176.753 476.165 164.506C412.898 195.729 358.184 207.424 312.024 199.591C265.863 191.758 223.833 161.316 185.933 108.263C184.784 106.273 182.67 103.183 179.59 98.9935C166.121 80.244 154.91 64.833 145.957 52.7603C136.508 40.9738 126.747 30.3627 116.673 20.9268C106.599 11.491 96.8644 5.50606 87.4703 2.97206C77.7891 -0.0592857 66.9865 -0.453839 55.0626 1.78846C43.1387 4.03075 29.7414 9.44474 14.8706 18.0304L-0.000207495 26.6161L23.6895 67.6478L31.1249 63.355C46.7785 54.9805 61.0253 55.0444 73.8652 63.5467C79.0066 67.8728 98.2952 91.5513 131.731 134.582C150.133 158.441 167.372 177.998 183.449 193.252C198.743 208.295 218.969 222.149 244.126 234.813C268.787 247.764 294.868 254.589 322.37 255.289C349.873 255.989 383.166 250.694 422.25 239.402Z" fill="#CACC4E"/>
</svg>
