<svg width="431" height="283" viewBox="0 0 431 283" fill="none" xmlns="http://www.w3.org/2000/svg">
<path d="M315.759 135.053L381.879 177.426L430.912 100.911L410.789 88.0156L405.34 96.5171C398.318 107.475 391.176 113.558 383.913 114.767C376.892 115.597 364.565 110.363 346.933 99.0639L266.44 47.4803C247.658 35.4441 231.075 25.883 216.69 18.7971C202.306 11.7113 186.52 6.39187 169.331 2.83883C151.759 -0.959846 135.73 -0.838157 121.243 3.20403C106.616 6.62276 91.4133 14.7365 75.635 27.545C60.0989 39.9757 45.0667 57.5265 30.5383 80.1973C6.80858 117.226 -2.88938 154.719 1.44444 192.676C5.39496 230.387 24.6188 260.296 59.1161 282.403L84.5408 242.729C61.9259 228.237 48.1785 208.766 43.2986 184.318C38.6608 159.492 45.9065 132.154 65.0355 102.305C86.8281 68.2983 109.507 49.7845 133.072 46.7631C156.495 43.1183 181.169 49.3357 207.092 65.4154L238.715 85.6805L284.136 114.788L315.759 135.053Z" fill="#CACC4E"/>
</svg>
