<svg width="527" height="157" viewBox="0 0 527 157" fill="none" xmlns="http://www.w3.org/2000/svg">
<path d="M416.313 104.053L475.773 82.3516L526.085 63.9891L506.187 9.47019L414.71 42.8566C207.363 118.533 87.1078 110.938 53.9446 20.0734C51.7338 14.0158 50.4377 7.62426 50.0563 0.898883L1.57364 18.5937L0.739048 21.9874C0.792459 24.0273 1.39864 27.5815 2.55749 32.6502C3.71634 37.719 5.2906 42.9792 7.28039 48.4311C13.4708 65.3926 20.9381 80.1718 29.6822 92.769C38.6474 105.972 53.044 118.909 72.8721 131.579C93.3101 144.027 117.216 151.777 144.591 154.829C172.797 158.263 210.291 155.906 257.074 147.755C304.078 140.21 357.158 125.643 416.313 104.053Z" fill="#E85A5A"/>
</svg>
